<svg width="118" height="30" viewBox="0 0 118 30" fill="none" xmlns="http://www.w3.org/2000/svg">
<path d="M9.77444 27.1518H3.89404L3.06803 29.4135H0L5.09372 16.2563H8.61409L13.6881 29.4135H10.6004L9.77444 27.1518ZM4.64138 24.7131H8.98776L6.82441 18.6754L4.64138 24.7131Z" fill="#191B1C"/>
<path d="M20.5717 28.2138C19.8244 29.1381 18.782 29.6495 17.6413 29.6495C15.242 29.6495 13.4326 27.8401 13.4326 24.6738C13.4326 21.5664 15.2223 19.6587 17.6413 19.6587C18.7623 19.6587 19.8244 20.1504 20.5717 21.1141V16.276H23.0891V29.4331H20.5717V28.2138ZM20.5717 22.9627C20.139 22.3334 19.254 21.8811 18.4083 21.8811C16.9923 21.8811 16.009 23.0021 16.009 24.6738C16.009 26.3061 16.9923 27.4271 18.4083 27.4271C19.254 27.4271 20.139 26.9748 20.5717 26.3454V22.9627Z" fill="#191B1C"/>
<path d="M23.7183 19.8947H26.393L28.871 26.5225L31.349 19.8947H34.063L30.228 29.4135H27.514L23.7183 19.8947Z" fill="#191B1C"/>
<path d="M38.7241 19.6587C41.5758 19.6587 43.5032 21.7827 43.5032 24.9098V25.4604H36.4231C36.5804 26.6601 37.5441 27.6631 39.1765 27.6631C40.0615 27.6631 41.1038 27.3091 41.7135 26.7191L42.8148 28.3318C41.8512 29.2168 40.3761 29.6495 38.8815 29.6495C35.9904 29.6495 33.7877 27.7025 33.7877 24.6344C33.7681 21.881 35.8134 19.6587 38.7241 19.6587ZM36.3641 23.7494H41.0645C41.0055 22.8447 40.3761 21.6254 38.7241 21.6254C37.1508 21.645 36.4821 22.8054 36.3641 23.7494Z" fill="#191B1C"/>
<path d="M50.9373 23.6511C50.9373 22.3334 50.2489 21.881 49.1869 21.881C48.2036 21.881 47.4366 22.4317 47.0236 23.0021V29.4135H44.5259V19.8947H47.0236V21.1337C47.6332 20.406 48.7936 19.6587 50.3669 19.6587C52.4516 19.6587 53.4743 20.8387 53.4743 22.6874V29.4135H50.9766L50.9373 23.6511Z" fill="#191B1C"/>
<path d="M55.6378 27.0338V22.0581H54.0645V19.875H55.6378V17.2593H58.1552V19.875H60.0825V22.0581H58.1552V26.3454C58.1552 26.9354 58.4698 27.3878 59.0205 27.3878C59.3942 27.3878 59.7482 27.2501 59.8859 27.1124L60.4169 29.0005C60.0432 29.3348 59.3745 29.6101 58.3322 29.6101C56.5818 29.6495 55.6378 28.7448 55.6378 27.0338Z" fill="#191B1C"/>
<path d="M72.3741 23.8871H66.1594V29.4135H63.3667V16.2563H66.1594V21.4091H72.3741V16.2563H75.1865V29.4135H72.3741V23.8871Z" fill="#191B1C"/>
<path d="M81.244 19.6587C84.0957 19.6587 86.023 21.7827 86.023 24.9098V25.4604H78.943C79.1003 26.6601 80.064 27.6631 81.6963 27.6631C82.5813 27.6631 83.6237 27.3091 84.2334 26.7191L85.3347 28.3318C84.371 29.2168 82.896 29.6495 81.4013 29.6495C78.5103 29.6495 76.3076 27.7025 76.3076 24.6344C76.3076 21.881 78.3333 19.6587 81.244 19.6587ZM78.884 23.7494H83.5844C83.5254 22.8447 82.896 21.6254 81.244 21.6254C79.6903 21.645 79.0216 22.8054 78.884 23.7494Z" fill="#191B1C"/>
<path d="M93.9684 28.2138C93.2211 29.1381 92.1787 29.6495 91.0381 29.6495C88.6387 29.6495 86.8293 27.8401 86.8293 24.6738C86.8293 21.5664 88.619 19.6587 91.0381 19.6587C92.1591 19.6587 93.2211 20.1504 93.9684 21.114V19.8947H96.4858V29.4135H93.9684V28.2138ZM93.9684 22.9824C93.5358 22.3531 92.6507 21.9007 91.8051 21.9007C90.3891 21.9007 89.4057 23.0021 89.4057 24.6541C89.4057 26.2864 90.3891 27.4074 91.8051 27.4074C92.6507 27.4074 93.5358 26.9551 93.9684 26.3258V22.9824Z" fill="#191B1C"/>
<path d="M98.1772 16.2563H100.675V29.4135H98.1772V16.2563Z" fill="#191B1C"/>
<path d="M103.271 27.0338V22.0581H101.698V19.875H103.271V17.2593H105.788V19.875H107.716V22.0581H105.788V26.3454C105.788 26.9354 106.103 27.3878 106.654 27.3878C107.027 27.3878 107.381 27.2501 107.519 27.1124L108.05 29.0005C107.676 29.3348 107.008 29.6101 105.965 29.6101C104.215 29.6495 103.271 28.7448 103.271 27.0338Z" fill="#191B1C"/>
<path d="M115.484 23.6118C115.484 22.2941 114.796 21.8811 113.714 21.8811C112.75 21.8811 111.983 22.4318 111.551 23.0021V29.4135H109.053V16.2563H111.551V21.1337C112.16 20.4061 113.34 19.6587 114.894 19.6587C116.979 19.6587 117.982 20.7994 117.982 22.6481V29.4135H115.484V23.6118Z" fill="#191B1C"/>
<path d="M87.065 6.18685L87.832 11.0839L84.351 11.6346L83.584 6.73751L87.065 6.18685ZM87.478 5.63617L83.053 6.34418L83.9773 12.1852L88.4024 11.4772L87.478 5.63617Z" fill="#191B1C"/>
<path d="M84.9805 7.76019L81.2242 8.3502C79.6312 8.60587 78.1168 7.50453 77.8808 5.91151L77.4285 3.05982C77.3498 2.56814 77.6841 2.09614 78.1758 2.03714L81.0275 1.5848C82.6205 1.32913 84.1349 2.43047 84.3709 4.02349L84.9805 7.76019Z" fill="#191B1C"/>
<path d="M89.9167 6.97355L86.1603 7.56355L85.5703 3.80718C85.3147 2.21416 86.416 0.699811 88.009 0.463808L90.8607 0.0114694C91.3524 -0.0671981 91.8244 0.267139 91.8834 0.758811L92.3357 3.61051C92.5914 5.20353 91.5097 6.71788 89.9167 6.97355Z" fill="#191B1C"/>
<path d="M83.584 14.7616L81.3223 15.1156C80.8896 15.1746 80.4766 14.8796 80.398 14.447L80.0046 11.8903C79.808 10.7102 80.6143 9.58924 81.814 9.41223L85.1574 8.88123L85.6294 11.9493C85.8457 13.3063 84.941 14.565 83.584 14.7616Z" fill="#191B1C"/>
<path d="M91.9031 13.4439L89.6414 13.7979C88.3041 14.0143 87.0257 13.0899 86.8094 11.7526L86.3374 8.68455L89.6808 8.15355C90.8608 7.95688 91.9818 8.76322 92.1588 9.96289L92.5521 12.5196C92.6505 12.9719 92.3358 13.3849 91.9031 13.4439Z" fill="#191B1C"/>
</svg>
