<svg width="117" height="29" viewBox="0 0 117 29" fill="none" xmlns="http://www.w3.org/2000/svg">
<path d="M52.837 24.4486H51.1594V23.8577H55.1816V24.4486H53.5105V28.5488H52.837V24.4486Z" fill="#191B1C"/>
<path d="M56.1292 23.8577H57.6242C57.9238 23.8577 58.1765 23.8988 58.3822 23.981C58.5884 24.0632 58.7555 24.168 58.8839 24.2973C59.0129 24.4265 59.1062 24.5731 59.1651 24.7368C59.2233 24.9006 59.2531 25.0674 59.2531 25.236C59.2531 25.5362 59.1829 25.8012 59.0426 26.0311C58.9023 26.261 58.6848 26.432 58.3899 26.5445L59.4849 28.5494H58.727L57.7229 26.6297H56.7825V28.5494H56.1297V23.8577H56.1292ZM57.6801 26.0591C57.975 26.0591 58.1961 25.9864 58.3435 25.8405C58.491 25.6952 58.5647 25.501 58.5647 25.2574C58.5647 24.9989 58.4844 24.7988 58.3257 24.6558C58.1664 24.5129 57.947 24.4414 57.6658 24.4414H56.7813V26.0591H57.6801Z" fill="#191B1C"/>
<path d="M61.8854 23.8577H62.5732L64.4053 28.5488H63.6545L63.17 27.2408H61.2463L60.7618 28.5488H60.0532L61.8854 23.8577ZM62.9661 26.6708L62.2082 24.61L61.4431 26.6708H62.9661Z" fill="#191B1C"/>
<path d="M64.0747 23.8577H64.8255L66.2505 27.7119L67.676 23.8577H68.3846L66.5733 28.5488H65.8855L64.0747 23.8577Z" fill="#191B1C"/>
<path d="M69.3745 23.8577H72.3225V24.4551H70.048V25.8197H71.7607V26.4248H70.048V27.9442H72.4907V28.5494H69.3745V23.8577Z" fill="#191B1C"/>
<path d="M73.7201 23.8577H74.3936V27.9508H76.8291V28.5488H73.7195V23.8577H73.7201Z" fill="#191B1C"/>
<path d="M81.202 24.4486H79.5244V23.8577H83.5466V24.4486H81.8755V28.5488H81.202V24.4486Z" fill="#191B1C"/>
<path d="M84.4939 23.8577H85.1674V25.8197H87.7296V23.8577H88.4031V28.5488H87.7296V26.4248H85.1674V28.5488H84.4939V23.8577Z" fill="#191B1C"/>
<path d="M89.7158 23.8577H92.6644V24.4551H90.3905V25.8197H92.1032V26.4248H90.3905V27.9442H92.8326V28.5494H89.7158V23.8577Z" fill="#191B1C"/>
<path d="M93.9205 23.8577H95.4156C95.7152 23.8577 95.9678 23.8988 96.1735 23.981C96.3792 24.0632 96.5463 24.168 96.6753 24.2973C96.8043 24.4265 96.8976 24.5731 96.9564 24.7368C97.0147 24.9006 97.0444 25.0674 97.0444 25.236C97.0444 25.5362 96.9743 25.8012 96.834 26.0311C96.6937 26.261 96.4755 26.432 96.1807 26.5445L97.2757 28.5494H96.5177L95.5137 26.6297H94.5732V28.5494H93.9199V23.8577H93.9205ZM95.4721 26.0591C95.7669 26.0591 95.9881 25.9864 96.1349 25.8405C96.2823 25.6952 96.356 25.501 96.356 25.2574C96.356 24.9989 96.2764 24.7988 96.1176 24.6558C95.9583 24.5129 95.739 24.4414 95.4578 24.4414H94.5732V26.0591H95.4721Z" fill="#191B1C"/>
<path d="M99.9571 23.8577H100.645L102.477 28.5488H101.726L101.241 27.2408H99.3181L98.8336 28.5488H98.125L99.9571 23.8577ZM101.038 26.6708L100.28 24.61L99.5149 26.6708H101.038Z" fill="#191B1C"/>
<path d="M103.474 23.8577H104.955C105.274 23.8577 105.537 23.9024 105.744 23.9911C105.953 24.0799 106.119 24.1925 106.243 24.3289C106.367 24.4647 106.454 24.6171 106.503 24.7857C106.552 24.9548 106.577 25.1192 106.577 25.2783C106.577 25.5129 106.537 25.719 106.457 25.8971C106.377 26.0758 106.268 26.2247 106.127 26.3438C105.987 26.4635 105.82 26.5535 105.625 26.6142C105.431 26.675 105.219 26.7059 104.99 26.7059H104.141V28.5482H103.474V23.8577ZM104.983 26.1294C105.274 26.1294 105.496 26.0555 105.654 25.9078C105.811 25.7601 105.889 25.5552 105.889 25.2926C105.889 25.0257 105.809 24.8155 105.647 24.6636C105.486 24.5111 105.265 24.4349 104.984 24.4349H104.142V26.13H104.983V26.1294Z" fill="#191B1C"/>
<path d="M108.669 26.4534L107.054 23.8583H107.805L109.026 25.8626L110.248 23.8583H110.971L109.349 26.4534V28.5494H108.669V26.4534Z" fill="#191B1C"/>
<path d="M46.3603 1.97205C46.3603 1.97205 39.6892 9.24624 33.5668 13.2077C33.5668 13.2065 33.5668 13.2065 33.5674 13.2065C33.2458 13.4387 32.9201 13.6687 32.5895 13.8992C32.5842 13.9027 32.58 13.9063 32.5753 13.9087C31.7353 14.4924 30.8668 15.0689 29.9739 15.6348C18.7748 22.7309 7.839 25.5398 5.54675 21.9095C3.25568 18.2781 10.4755 9.58276 21.674 2.48606C21.7483 2.43901 21.8238 2.39195 21.8981 2.34549C20.8911 2.92562 19.8787 3.53731 18.8639 4.18117C6.10019 12.2684 -2.12839 22.1799 0.483689 26.3176C1.53173 27.977 4.16521 28.4553 7.76707 27.9115L7.22433 28.8627H13.6237L15.3834 25.7786C19.3615 24.2574 23.7885 22.0328 28.2529 19.2096L33.76 28.8627H40.1601L32.8648 16.0761C39.5799 11.1724 44.4937 5.97217 46.3603 1.97205Z" fill="#191B1C"/>
<path d="M23.6928 0L11.0884 22.0912C11.0884 22.0912 22.4207 21.663 42.9672 4.40276C41.2759 5.67617 36.4869 8.96692 30.6219 12.1457L23.6928 0ZM20.4649 16.8731L23.6928 11.2165L25.6581 14.6622C23.9526 15.4638 22.2078 16.2149 20.4649 16.8731ZM43.029 4.35094C43.0088 4.36761 42.988 4.38548 42.9672 4.40276C42.9897 4.38548 43.0111 4.37 43.0319 4.35392L43.029 4.35094Z" fill="#191B1C"/>
<path d="M52.4463 19.2745V18.7718C53.5764 18.6277 53.7375 18.4841 53.5045 17.7831C53.2715 17.0827 52.913 16.1124 52.5183 15.0165H48.6988C48.4117 15.8247 48.143 16.5794 47.91 17.334C47.5331 18.4663 47.677 18.6456 49.0401 18.7712V19.2739H45.1309V18.7712C46.2788 18.6092 46.5296 18.5014 47.1396 16.9022L50.8514 7.48738L51.4072 7.32538C52.5189 10.3975 53.7209 13.8294 54.8682 16.9558C55.424 18.5008 55.6749 18.6628 56.8406 18.7706V19.2733H52.4463V19.2745ZM50.6891 9.66196H50.6534C50.0798 11.1891 49.5234 12.7699 48.9675 14.2434H52.2668L50.6891 9.66196Z" fill="#191B1C"/>
<path d="M66.0595 18.807C65.6648 18.8791 64.3201 19.1126 63.2798 19.4896V18.3216L62.186 18.9684C61.469 19.3818 60.9846 19.4896 60.7872 19.4896C59.3527 19.4896 57.4695 18.1781 57.4695 15.6628C57.4695 13.1654 59.6393 11.207 62.0778 11.207C62.3292 11.207 62.8672 11.2606 63.2792 11.4226V8.85317C63.2792 7.68517 63.1894 7.63157 61.8982 7.54163V7.09254C62.831 6.98474 64.0324 6.69706 64.6958 6.48145V17.2078C64.6958 18.1423 64.8212 18.2323 65.4846 18.3037L66.0583 18.3573V18.807H66.0595ZM63.2804 12.8062C62.85 12.1779 62.0968 11.8902 61.4334 11.8902C60.5904 11.8902 59.0841 12.5728 59.0841 15.178C59.0841 17.3162 60.3931 18.3579 61.5588 18.3579C62.186 18.3579 62.85 18.0702 63.2804 17.7474V12.8062Z" fill="#191B1C"/>
<path d="M75.1544 11.8902C74.2038 12.0158 74.0606 12.1778 73.5761 13.2374C72.9667 14.5847 72.034 16.795 71.03 19.4717H70.5277C69.7388 17.3156 68.9137 15.2851 68.0529 13.1832C67.6403 12.1594 67.5149 12.0331 66.5471 11.8896V11.4226H70.2233V11.8896C69.2549 11.9974 69.2192 12.1415 69.5064 12.914C69.9546 14.1719 70.6899 16.0761 71.2095 17.3519C71.8373 15.8605 72.4109 14.244 72.8056 13.0754C73.0928 12.213 72.9852 12.0152 71.9627 11.8896V11.4226H75.155V11.8902H75.1544Z" fill="#191B1C"/>
<path d="M81.2165 19.4896C80.9473 19.4896 80.571 19.3281 80.3736 19.1304C80.1406 18.8969 80.033 18.6456 79.9432 18.34C79.2257 18.8249 78.3649 19.4901 77.8275 19.4901C76.5542 19.4901 75.6755 18.43 75.6755 17.2983C75.6755 16.418 76.1416 15.8611 77.1278 15.5198C78.2038 15.1607 79.5128 14.6752 79.9075 14.3518V14.0463C79.9075 12.7347 79.2976 12.0158 78.3833 12.0158C78.0427 12.0158 77.7734 12.1421 77.576 12.3571C77.3608 12.6085 77.1991 13.0039 77.0559 13.543C76.9661 13.8307 76.7866 13.9563 76.5357 13.9563C76.2129 13.9563 75.7647 13.615 75.7647 13.1838C75.7647 12.9325 75.9799 12.7169 76.3205 12.4655C76.8044 12.1064 77.9886 11.4232 79.0105 11.2076C79.5485 11.2076 80.0865 11.3696 80.4812 11.6924C81.1084 12.2314 81.2879 12.9503 81.2879 13.9021V17.2262C81.2879 18.0345 81.6107 18.3043 81.9156 18.3043C82.1308 18.3043 82.3817 18.2143 82.5612 18.1065L82.7408 18.5735L81.2165 19.4896ZM79.9075 14.9623C79.5306 15.1601 78.6705 15.5371 78.2936 15.717C77.5939 16.0404 77.1997 16.3817 77.1997 17.0464C77.1997 17.9624 77.9173 18.4115 78.4731 18.4115C78.9391 18.4115 79.5669 18.1059 79.9075 17.7647V14.9623Z" fill="#191B1C"/>
<path d="M88.4284 19.2745V18.8076C89.4865 18.6998 89.6119 18.5556 89.6119 17.3168V14.3161C89.6119 13.0766 89.1809 12.2678 87.9801 12.2678C87.2626 12.2678 86.5635 12.7169 86.0255 13.1838V17.4055C86.0255 18.6271 86.1337 18.6992 87.1913 18.807V19.274H83.2993V18.807C84.5186 18.6813 84.6083 18.5914 84.6083 17.4055V13.7044C84.6083 12.5543 84.5013 12.4828 83.5323 12.3029V11.8902C84.3931 11.7282 85.2361 11.5125 86.0249 11.1713V12.5906C86.3834 12.3208 86.7781 12.0516 87.2263 11.746C87.7281 11.4226 88.1947 11.207 88.7143 11.207C90.1493 11.207 91.0279 12.213 91.0279 13.9379V17.4055C91.0279 18.6271 91.1349 18.6992 92.1759 18.807V19.274H88.4284V19.2745Z" fill="#191B1C"/>
<path d="M99.5485 17.6575C98.7596 18.6998 97.5755 19.4901 96.5173 19.4901C94.2584 19.4901 92.9131 17.6575 92.9131 15.7354C92.9131 14.3524 93.5224 13.1481 94.7244 12.2314C95.6571 11.5131 96.7325 11.2076 97.3959 11.2076H97.4144C98.1491 11.2076 98.7412 11.4411 99.0277 11.6924C99.2608 11.8902 99.3149 12.0337 99.3149 12.2314C99.3149 12.6091 98.9202 13.0045 98.7228 13.0045C98.6158 13.0045 98.526 12.9503 98.3822 12.8068C97.8442 12.3041 97.2164 12.0706 96.5708 12.0706C95.3872 12.0706 94.3654 13.0587 94.3654 14.945C94.3654 17.4424 96.0513 18.2691 97.0731 18.2691C97.8436 18.2691 98.4178 18.0535 99.2429 17.2804L99.5485 17.6575Z" fill="#191B1C"/>
<path d="M107.011 17.7647C105.88 19.1661 104.643 19.4895 104.088 19.4895C101.882 19.4895 100.59 17.6932 100.59 15.6627C100.59 14.4412 101.039 13.3274 101.774 12.5191C102.51 11.7103 103.478 11.2076 104.393 11.2076H104.41C105.899 11.2076 107.1 12.5549 107.1 13.9385C107.1 14.2976 107.028 14.4417 106.688 14.5132C106.401 14.5674 104.142 14.7467 101.989 14.8188C102.008 17.262 103.424 18.2685 104.679 18.2685C105.415 18.2685 106.078 17.9809 106.742 17.3698L107.011 17.7647ZM102.078 14.082C103.082 14.082 104.087 14.0641 105.127 14.0278C105.449 14.0278 105.557 13.9379 105.557 13.6686C105.576 12.7341 104.966 11.8717 103.962 11.8717C103.155 11.8717 102.348 12.6263 102.078 14.082Z" fill="#191B1C"/>
<path d="M117 18.807C116.605 18.8791 115.26 19.1126 114.22 19.4896V18.3216L113.126 18.9684C112.409 19.3818 111.925 19.4896 111.727 19.4896C110.293 19.4896 108.41 18.1781 108.41 15.6628C108.41 13.1654 110.579 11.207 113.018 11.207C113.269 11.207 113.807 11.2606 114.22 11.4226V8.85317C114.22 7.68517 114.13 7.63157 112.839 7.54163V7.09254C113.771 6.98474 114.973 6.69706 115.636 6.48145V17.2078C115.636 18.1423 115.762 18.2323 116.425 18.3037L116.999 18.3573V18.807H117ZM114.221 12.8062C113.79 12.1779 113.037 11.8902 112.374 11.8902C111.531 11.8902 110.024 12.5728 110.024 15.178C110.024 17.3162 111.333 18.3579 112.499 18.3579C113.127 18.3579 113.79 18.0702 114.221 17.7474V12.8062Z" fill="#191B1C"/>
</svg>
