<svg width="116" height="40" viewBox="0 0 116 40" fill="none" xmlns="http://www.w3.org/2000/svg">
<path d="M55.173 4.95044H57.2795L66.6908 25.0486H63.6181L60.816 19.1351H51.8684L49.2402 25.0486H46.1482L55.173 4.95044ZM59.5985 16.5842L56.2166 9.33724L53.0859 16.5842H59.5985Z" fill="#191B1C"/>
<path d="M84.7402 4.95044H87.5424V25.0486H84.5083V9.39522L78.0731 17.1253H77.5126L70.9807 9.39522V25.0486H67.9854V4.95044H70.8068L77.7832 13.1829L84.7402 4.95044Z" fill="#191B1C"/>
<path d="M105.786 4.95044H108.511V25.0486H106.134L92.6833 9.56914V25.0486H89.9971V4.95044H92.2968L105.786 20.5072V4.95044Z" fill="#191B1C"/>
<path d="M52.1389 29.2034V33.5902H47.1531V29.2034H46.1675V39.0785H47.1531V34.4211H52.1389V39.0785H53.1245V29.2034H52.1389Z" fill="#191B1C"/>
<path d="M60.0816 38.866C59.4632 39.1172 58.6516 39.2718 57.9945 39.2718C55.5982 39.2718 54.7092 37.6678 54.7092 35.4841C54.7092 33.281 55.9267 31.6964 57.7626 31.6964C59.7917 31.6964 60.642 33.339 60.642 35.2715V35.716H55.6948C55.6948 37.2427 56.5258 38.4795 58.0718 38.4795C58.7289 38.4795 59.6758 38.2089 60.1009 37.9384V38.866H60.0816ZM59.6371 34.9623C59.6371 33.7062 59.1347 32.45 57.8013 32.45C56.4871 32.45 55.6755 33.7641 55.6755 34.9623H59.6371Z" fill="#191B1C"/>
<path d="M66.1884 37.919H66.1691C65.7633 38.7887 64.7584 39.2525 63.8694 39.2525C61.821 39.2525 61.4924 37.8611 61.4924 37.2233C61.4924 34.8077 64.0627 34.6917 65.9372 34.6917H66.1111V34.3246C66.1111 33.0878 65.6667 32.4694 64.4685 32.4694C63.7148 32.4694 63.0191 32.6433 62.3427 33.0684V32.1988C62.9032 31.9283 63.8308 31.6964 64.4685 31.6964C66.2464 31.6964 67.0001 32.508 67.0001 34.3825V37.5712C67.0001 38.1509 67.0001 38.5954 67.0774 39.0785H66.2078V37.919H66.1884ZM66.1111 35.4454H65.8599C64.3139 35.4454 62.478 35.6 62.478 37.1847C62.478 38.1316 63.1544 38.4988 63.9854 38.4988C66.0725 38.4988 66.1305 36.6629 66.1305 35.8899V35.4454H66.1111Z" fill="#191B1C"/>
<path d="M69.9183 28.4691H69.0293V39.0785H69.9183V28.4691Z" fill="#191B1C"/>
<path d="M75.5224 32.6433H73.8798V37.32C73.8798 37.977 74.1117 38.5181 74.846 38.5181C75.1939 38.5181 75.4065 38.4408 75.677 38.3442L75.735 39.0786C75.5224 39.1559 75.0779 39.2718 74.6334 39.2718C73.0488 39.2718 72.9908 38.1896 72.9908 36.8562V32.6433H71.5801V31.8703H72.9908V30.131L73.8798 29.8218V31.8703H75.5224V32.6433Z" fill="#191B1C"/>
<path d="M77.4744 28.4691H78.3634V33.0878H78.3827C78.7692 32.2954 79.5809 31.6963 80.6244 31.6963C82.557 31.6963 83.0787 32.9911 83.0787 34.769V39.0785H82.1898V34.769C82.1898 33.5129 81.9579 32.45 80.4698 32.45C78.8852 32.45 78.3247 33.9574 78.3247 35.2135V39.0785H77.4358V28.4691H77.4744Z" fill="#191B1C"/>
<path d="M89.9005 32.8366C89.4173 32.624 88.8376 32.4694 88.3545 32.4694C86.6152 32.4694 85.6296 33.7255 85.6296 35.4841C85.6296 37.1268 86.6152 38.4988 88.2578 38.4988C88.8183 38.4988 89.34 38.3636 89.8811 38.1703L89.9584 39.0013C89.34 39.2139 88.7796 39.2525 88.1032 39.2525C85.7842 39.2525 84.644 37.4746 84.644 35.4648C84.644 33.2424 86.0741 31.6771 88.1999 31.6771C89.0695 31.6771 89.6879 31.8703 89.9391 31.9669L89.9005 32.8366Z" fill="#191B1C"/>
<path d="M95.8718 37.919H95.8525C95.4466 38.7887 94.4417 39.2525 93.5528 39.2525C91.5043 39.2525 91.1758 37.8611 91.1758 37.2233C91.1758 34.8077 93.746 34.6917 95.6206 34.6917H95.7945V34.3246C95.7945 33.0878 95.35 32.4694 94.1518 32.4694C93.3982 32.4694 92.7025 32.6433 92.0261 33.0684V32.1988C92.5865 31.9283 93.5141 31.6964 94.1518 31.6964C95.9298 31.6964 96.6834 32.508 96.6834 34.3825V37.5712C96.6834 38.1509 96.6834 38.5954 96.7607 39.0785H95.8911V37.919H95.8718ZM95.7945 35.4454H95.5433C93.9972 35.4454 92.1614 35.6 92.1614 37.1847C92.1614 38.1316 92.8377 38.4988 93.6687 38.4988C95.7558 38.4988 95.8138 36.6629 95.8138 35.8899V35.4454H95.7945Z" fill="#191B1C"/>
<path d="M98.5965 33.4743C98.5965 32.6819 98.5965 32.3921 98.5386 31.8703H99.4275V33.2617H99.4469C99.7754 32.45 100.374 31.6964 101.302 31.6964C101.515 31.6964 101.766 31.735 101.92 31.7736V32.7013C101.727 32.6433 101.495 32.624 101.263 32.624C99.8527 32.624 99.4662 34.2086 99.4662 35.5034V39.0785H98.5772V33.4743H98.5965Z" fill="#191B1C"/>
<path d="M107.911 38.866C107.293 39.1172 106.481 39.2718 105.824 39.2718C103.428 39.2718 102.539 37.6678 102.539 35.4841C102.539 33.281 103.757 31.6964 105.592 31.6964C107.622 31.6964 108.472 33.339 108.472 35.2715V35.716H103.525C103.525 37.2427 104.356 38.4795 105.902 38.4795C106.559 38.4795 107.506 38.2089 107.931 37.9384V38.866H107.911ZM107.467 34.9623C107.467 33.7062 106.965 32.45 105.631 32.45C104.317 32.45 103.505 33.7641 103.505 34.9623H107.467Z" fill="#191B1C"/>
<path d="M0 25.0485H6.39662L10.8221 18.1302L7.42085 13.4341L0 25.0485Z" fill="#191B1C"/>
<path d="M13.8366 13.4341H7.42065L15.8464 25.0485L19.1124 20.7197L13.8366 13.4341Z" fill="#191B1C"/>
<path d="M14.4358 2.41882L8.21313 12.2167H14.5904L19.1705 5.00838L16.3683 0.621582C15.634 1.00808 14.9769 1.58784 14.4358 2.41882Z" fill="#191B1C"/>
<path d="M24.0402 2.61203C23.2865 1.45252 22.2623 0.544242 20.9095 0.19639C19.4215 -0.170787 17.6242 -0.0161851 16.4067 0.602219L23.8083 12.1973H30.2049C30.1662 12.2166 24.6586 3.57829 24.0402 2.61203Z" fill="#191B1C"/>
<path d="M7.40161 39.0785H13.7789L19.4412 30.9813C17.8952 28.527 16.4458 26.2466 16.4458 26.2466L7.40161 39.0785Z" fill="#191B1C"/>
<path d="M22.7844 26.2659H16.4651C16.4651 26.2659 22.939 36.5082 23.055 36.6822C23.5961 37.5325 24.3497 38.2089 24.9102 38.4987L27.5964 33.8414L22.7844 26.2659Z" fill="#191B1C"/>
<path d="M37.7614 26.2659C37.7421 27.0196 37.5102 27.7346 37.1817 28.3144C35.4037 31.4064 32.4277 36.6049 32.1571 37.0107C31.8093 37.5711 31.2102 38.1316 30.5531 38.4794C29.7801 38.8853 28.7945 39.0978 27.7123 39.0978C27.7123 39.0978 25.7605 39.0399 24.8909 38.5181L31.9445 26.2853L37.7614 26.2659Z" fill="#191B1C"/>
<path d="M15.8467 25.0485H22.2626L27.4997 18.0335L24.5623 13.4341L15.8467 25.0485Z" fill="#191B1C"/>
<path d="M37.742 25.0485C37.6647 24.4107 37.4328 23.5991 36.853 22.6908L30.9589 13.4534H24.5623L31.9831 25.0678H37.742V25.0485Z" fill="#191B1C"/>
<path d="M113.844 4.95032C115.004 4.95032 115.951 5.89725 115.951 7.05675C115.951 8.21626 115.004 9.16319 113.844 9.16319C112.685 9.16319 111.738 8.21626 111.738 7.05675C111.738 5.89725 112.685 4.95032 113.844 4.95032ZM113.844 8.85399C114.811 8.85399 115.545 8.08099 115.545 7.05675C115.545 6.05185 114.811 5.25952 113.844 5.25952C112.859 5.25952 112.144 6.03252 112.144 7.05675C112.144 8.06166 112.878 8.85399 113.844 8.85399ZM113.033 5.81995H113.98C114.54 5.81995 114.83 6.05185 114.83 6.51565C114.83 6.92148 114.579 7.19203 114.192 7.19203L114.888 8.27424H114.463L113.767 7.19203H113.419V8.27424H113.013V5.81995H113.033ZM113.439 6.88283H113.922C114.231 6.88283 114.424 6.82485 114.424 6.49633C114.424 6.20645 114.173 6.12915 113.922 6.12915H113.439V6.88283Z" fill="#191B1C"/>
</svg>
