<svg width="15" height="15" viewBox="0 0 15 15" fill="none" xmlns="http://www.w3.org/2000/svg">
<path d="M13.6389 11.111C13.4395 11.111 13.2777 10.9492 13.2777 10.7498V2.23281L1.61627 13.8944C1.47543 14.0352 1.24647 14.0352 1.10563 13.8944C0.96479 13.7535 0.96479 13.5246 1.10563 13.3838L12.7671 1.72223H4.24962C4.05028 1.72223 3.88848 1.56045 3.88848 1.36112C3.88848 1.16179 4.05028 1 4.24962 1H13.6389C13.6858 1 13.7327 1.00938 13.7768 1.02746C13.865 1.06429 13.9357 1.13433 13.9725 1.22316C13.9906 1.26721 14 1.31416 14 1.36112V10.7499C14 10.9492 13.8382 11.111 13.6389 11.111Z" fill="#191B1C" stroke="#191B1C" stroke-width="0.8"/>
</svg>
