<?xml version="1.0" encoding="utf-8"?>
<!-- Generator: Adobe Illustrator 22.0.1, SVG Export Plug-In . SVG Version: 6.00 Build 0)  -->
<svg version="1.1" id="Слой_1" xmlns="http://www.w3.org/2000/svg" xmlns:xlink="http://www.w3.org/1999/xlink" x="0px" y="0px"
	 viewBox="0 0 360 360" style="enable-background:new 0 0 360 360;" xml:space="preserve">
<style type="text/css">
	.st0{fill:#1B1B1B;}
</style>
<g>
	<path class="st0" d="M100,87.3c9.5-4.8,18-2.7,20.7-6.5c2.5-3.5-0.3-10.7-5-17.6c-3.5-5.2-7.8-10.2-9-16.4
		c-1.3-6.2,1.9-13.8,8.1-14.7c6.5-0.9,11.6,5.7,13,12.1c1.4,6.4,0.9,13.2,3.6,19.2c2.7,5.9,11,10.1,15.7,5.7
		c5.3-4.9,1.3-15.1,6.6-20c3.3-3.1,8.8-2.2,12.6,0.2c5.4,3.5,5.7,6.6,9.9,9.2c11.3,7.1,31.1-10.7,36.7-5.2c1,1,1.8,2.9,0.8,7.3
		c-0.1,0.7-1.9,13.7,6.2,20c5.9,4.6,14.6,5,20.9,1.1c4.4-2.7,8.9-7.5,13.7-5.6c7.1,2.9,2.4,14.3,6.1,20.9c2.6,4.6,8.9,5.8,13.8,4.2
		c5-1.6,8.9-5.4,12.6-9c9.7-9.4,19.4-18.9,29.1-28.3c4.5-4.4,10.6-9.1,16.4-6.8c7.2,2.9,6.3,14.3,0.7,19.7
		c-5.6,5.4-13.7,7.4-20.3,11.4c-6.7,4-12.3,12.5-8.5,19.4c1,1.5,2.6,3.5,5,4.1c5.2,1.3,8.3-5.4,14.5-5.5c6.4-0.1,13.9,7,12.8,12.6
		c-0.8,3.9-5.2,5.6-8.7,6.1c-3,0.5-6.2,0.6-8.7,2.4c-1.9,1.3-3.1,3.5-3.3,5.8c-0.4,5.2,5,10.2,10.1,9.8c7.3-0.6,14.4-9.3,20.4-5
		c5.3,3.9,0.8,12.5-5,15.7c-5.7,3.2-13.2,5.3-15.3,11.5c-1.8,5.1,1.1,10.5,2.7,15.7c5.8,18.6-4.5,37.9-14.5,54.6
		c-1.9,3.2-3.9,6.5-7.2,8.4c-3.2,1.9-8,1.7-10.1-1.4c-2.8-4.2,0.9-10.3-1.5-14.7c-1.8-3.3-6.3-4.1-9.7-2.8c-3.4,1.4-5.9,4.4-7.9,7.5
		c-8.8,14-10.1,32.5-3.3,47.6c2,4.4,4.7,8.7,5.3,13.5c0.6,4.8-1.7,10.5-6.5,11.6c-5.8,1.3-10.6-4.7-12.8-10.2s-4.3-12.1-9.8-14.3
		c-7.9-3.2-15.5,5.1-20,12.4c-4.5,7.3-11.4,15.8-19.6,13.5c-9.2-2.7-10.7-16.9-19.8-19.8c-6.5-2.1-13.3,3.1-16.3,9.2
		c-3,6.1-3.5,13.1-5.8,19.5c-2.2,6.4-7.1,12.8-13.9,13.2c-6.8,0.4-12-5.5-13.7-11.6c-2.3-7.9,1.3-16.6,5.3-23.3
		c0.7-1.1,1.4-2.3,1.6-3.6c0.3-2.3-0.9-5-2-7c-1.6-2.8-4.1-5-7.4-5.4c-2.7-0.3-5.4,0.4-7.9,1.3c-2.6,0.9-5.1,2.1-7.8,2.9
		c-2.1,0.7-4.5,1.2-6.6,0.2c-0.3-0.1-0.6-0.3-0.8-0.5c-5.8-4,0-16-6.7-21.4c-4.2-3.4-10.3-2.7-15.5-1c-5.1,1.7-10.1,4.3-15.5,4.4
		c-5.4,0.1-11.4-3.7-11.2-9.1c0.2-7.5,10.9-9.9,14.3-16.6c3.6-7-2.8-15.9-10.4-17.5c-7.7-1.6-15.5,1.8-22.3,5.8
		c-6.7,4-13.3,8.9-21,10.5s-17.1-1.3-19.8-8.6c-2.8-7.5,2.7-16,9.9-19.5c7.2-3.6,15.5-3.6,23.4-4c8-0.5,16.5-1.6,22.5-6.9
		c6-5.2,8-15.8,1.9-21c-5.9-5.1-16.8-3.6-20-10.7c-2.7-6,3-12.5,8.9-15.2c5.9-2.8,13-4.1,17.1-9.2c4.8-5.9,3.7-14.9-0.2-21.4
		c-3.9-6.5-10-11.4-15.4-16.8c-5.4-5.4-10.4-11.8-11-19.4c-0.6-7.6,4.9-16,12.5-15.9c5.5,0.1,10.1,4.4,12.9,9.1
		c2.8,4.7,4.4,10.1,7.4,14.7c3.5,5.3,10.5,9.6,13.5,7.9c2.9-1.6,0.9-8.1,6-12C98.6,88.1,99.1,87.8,100,87.3z"/>
	<path class="st0" d="M240.9,339.4c0,0.1,0,0.1,0,0.2c0.2,1.5,0.7,2.9,1.4,4.2c1.4,2.6,3.7,5,6.7,5.6c2.5,0.5,5.3-0.1,7.1-1.8
		c0.7-0.7,1.3-1.5,1.6-2.4c1-2.8-0.1-5.8-1.2-8.5c-2.6-6.3-5.4-12.4-8.4-18.5c-0.2-0.4-0.7-0.7-1.2-0.7c-0.5,0-0.9,0.4-1.1,0.8
		c-0.5,1.6-1.1,3.2-1.6,4.9c-1,3.2-1.9,6.4-2.7,9.7C241.1,335,240.6,337.2,240.9,339.4z"/>
	<path class="st0" d="M277.4,70.4c0,0.5,0.4,0.9,0.8,1c0.5,0.1,1,0,1.3-0.4c3.1-3.7,5.7-6.9,7.8-9.5c4.5-5.8,5.9-8.2,5.7-11.2
		c-0.1-0.7-0.4-4.5-3.5-6.5c-0.4-0.2-3-2.1-5.6-1c-1.9,0.8-3.2,2.5-4.2,4.3c-1.9,3.4-2.5,7-2.7,12C276.9,62.1,276.9,65.9,277.4,70.4
		z"/>
	<path class="st0" d="M190.1,18.2c-0.3-1.2-1.2-4.6-4.3-6.5c-0.6-0.4-3.2-2-6-1c-1.9,0.7-2.9,2.1-3.2,2.7c-0.7,1.3-0.9,2.8-0.9,4.2
		c-0.5,9,4.1,18,11.5,23.1c0.4,0.3,0.9,0.3,1.4,0c0.4-0.3,0.6-0.8,0.5-1.2c-0.7-4-0.6-7.2-0.3-9.4C189.4,24.9,191.2,22.6,190.1,18.2
		z"/>
	<path class="st0" d="M89.8,281.9c0.9-0.3,2.1-0.6,2.7,0c0.7,0.7,0.4,1.9,0,2.8c-1.3,3.2-2.6,6.4-3.9,9.6c-1.5,3.6-3,7.3-5.9,9.9
		c-2.9,2.6-7.6,3.6-10.7,1.3c-2.3-1.7-3.2-4.8-2.7-7.6c0.5-2.8,2.2-5.2,4.3-7.1C75.7,288.9,86.3,283.2,89.8,281.9z"/>
	<path class="st0" d="M36.6,116.3c-2.2-1-4.1-1.1-5.3-1.3c-2.9-0.4-5.9,0-8.3,0.9c-3.2,1.2-5.7,3.9-4.6,6.8c0.7,1.9,2.8,3.5,5.2,4.5
		c2.4,0.9,5,1.3,7.6,1.5c4.8,0.4,9.5,0.2,14.1-0.5c0.4-0.1,0.7-0.3,0.9-0.6c0.2-0.3,0.2-0.7,0.1-1.1c-0.9-2.2-2.6-5.1-5.4-7.6
		C38.8,117.2,37,116.4,36.6,116.3z"/>
</g>
</svg>
