<svg width="68" height="66" viewBox="0 0 68 66" fill="none" xmlns="http://www.w3.org/2000/svg">
<mask id="mask0" mask-type="alpha" maskUnits="userSpaceOnUse" x="13" y="16" width="50" height="50">
<rect x="14" y="17" width="48" height="48" fill="#E8ECF3" stroke="black" stroke-width="2"/>
</mask>
<g mask="url(#mask0)">
<line x1="51.6495" y1="4.63698" x2="1.64689" y2="54.6396" stroke="black" stroke-width="2"/>
<line x1="45.9932" y1="-1.01987" x2="-4.00936" y2="48.9827" stroke="black" stroke-width="2"/>
<line x1="57.3067" y1="10.2938" x2="7.30411" y2="60.2964" stroke="black" stroke-width="2"/>
<line x1="62.9639" y1="15.9507" x2="12.9613" y2="65.9533" stroke="black" stroke-width="2"/>
<line x1="68.6212" y1="21.6076" x2="18.6186" y2="71.6101" stroke="black" stroke-width="2"/>
<line x1="74.2774" y1="27.2644" x2="24.2748" y2="77.267" stroke="black" stroke-width="2"/>
<line x1="79.9337" y1="32.9213" x2="29.9311" y2="82.9239" stroke="black" stroke-width="2"/>
</g>
<rect x="14" y="17" width="48" height="48" stroke="#1A6AFF" stroke-width="2"/>
<rect x="1" y="6" width="48" height="48" fill="#E8ECF3" stroke="black" stroke-width="2"/>
<path d="M63 5V0H61V5H56V7H61V12H63V7H68V5H63Z" fill="#1A6AFF"/>
<circle cx="13" cy="18" r="1" fill="#191B1C" stroke="black" stroke-width="0.5"/>
<circle cx="19" cy="18" r="1" fill="#191B1C" stroke="black" stroke-width="0.5"/>
<circle cx="25" cy="18" r="1" fill="#191B1C" stroke="black" stroke-width="0.5"/>
<circle cx="31" cy="18" r="1" fill="#191B1C" stroke="black" stroke-width="0.5"/>
<circle cx="37" cy="18" r="1" fill="#191B1C" stroke="black" stroke-width="0.5"/>
<circle cx="13" cy="24" r="1" fill="#191B1C" stroke="black" stroke-width="0.5"/>
<circle cx="19" cy="24" r="1" fill="#191B1C" stroke="black" stroke-width="0.5"/>
<circle cx="25" cy="24" r="1" fill="#191B1C" stroke="black" stroke-width="0.5"/>
<circle cx="31" cy="24" r="1" fill="#191B1C" stroke="black" stroke-width="0.5"/>
<circle cx="37" cy="24" r="1" fill="#191B1C" stroke="black" stroke-width="0.5"/>
<circle cx="13" cy="30" r="1" fill="#191B1C" stroke="black" stroke-width="0.5"/>
<circle cx="19" cy="30" r="1" fill="#191B1C" stroke="black" stroke-width="0.5"/>
<circle cx="25" cy="30" r="1" fill="#191B1C" stroke="black" stroke-width="0.5"/>
<circle cx="31" cy="30" r="1" fill="#191B1C" stroke="black" stroke-width="0.5"/>
<circle cx="37" cy="30" r="1" fill="#191B1C" stroke="black" stroke-width="0.5"/>
<circle cx="13" cy="36" r="1" fill="#191B1C" stroke="black" stroke-width="0.5"/>
<circle cx="19" cy="36" r="1" fill="#191B1C" stroke="black" stroke-width="0.5"/>
<circle cx="25" cy="36" r="1" fill="#191B1C" stroke="black" stroke-width="0.5"/>
<circle cx="31" cy="36" r="1" fill="#191B1C" stroke="black" stroke-width="0.5"/>
<circle cx="37" cy="36" r="1" fill="#191B1C" stroke="black" stroke-width="0.5"/>
<circle cx="13" cy="42" r="1" fill="#191B1C" stroke="black" stroke-width="0.5"/>
<circle cx="19" cy="42" r="1" fill="#191B1C" stroke="black" stroke-width="0.5"/>
<circle cx="25" cy="42" r="1" fill="#191B1C" stroke="black" stroke-width="0.5"/>
<circle cx="31" cy="42" r="1" fill="#191B1C" stroke="black" stroke-width="0.5"/>
<circle cx="37" cy="42" r="1" fill="#191B1C" stroke="black" stroke-width="0.5"/>
</svg>
