<svg width="29" height="12" viewBox="0 0 29 12" fill="none" xmlns="http://www.w3.org/2000/svg">
<path d="M23.1999 8C21.481 8 20.5937 8.66738 19.8112 9.25616C19.1237 9.7732 18.5808 10.1818 17.3995 10.1818C16.2185 10.1818 15.6755 9.7732 14.9883 9.25616C14.2057 8.66738 13.3185 8 11.5996 8C9.88091 8 8.99369 8.66738 8.21112 9.25616C7.52391 9.7732 6.98096 10.1818 5.79991 10.1818C4.61887 10.1818 4.07591 9.7732 3.3887 9.25616C2.60591 8.66738 1.71869 8 0 8V9.81818C1.18127 9.81818 1.724 10.2266 2.41121 10.7436C3.194 11.3326 4.081 12 5.79991 12C7.5186 12 8.40582 11.3324 9.18839 10.7436C9.8756 10.2266 10.4186 9.81818 11.5996 9.81818C12.7809 9.81818 13.3236 10.2266 14.011 10.7436C14.7936 11.3326 15.6808 12 17.3995 12C19.1184 12 20.0056 11.3324 20.7884 10.7436C21.4756 10.2266 22.0186 9.81818 23.1999 9.81818C24.3811 9.81818 24.9239 10.2266 25.6113 10.7436C26.3939 11.3326 27.2811 12 29 12V10.1818C27.8187 10.1818 27.2758 9.7732 26.5886 9.25616C25.8058 8.66738 24.9186 8 23.1999 8Z" fill="#E8ECF3"/>
<path d="M26.5886 1.25639C25.8058 0.667377 24.9186 0 23.1999 0C21.481 0 20.5937 0.667377 19.8112 1.25639C19.1237 1.77344 18.5808 2.18182 17.3995 2.18182C16.2185 2.18182 15.6755 1.77344 14.9883 1.25639C14.2057 0.667377 13.3185 0 11.5996 0C9.88091 0 8.99369 0.667377 8.21112 1.25639C7.52391 1.77344 6.98096 2.18182 5.79991 2.18182C4.61887 2.18182 4.07591 1.77344 3.3887 1.25639C2.60591 0.667377 1.71869 0 0 0V1.81818C1.18127 1.81818 1.724 2.22656 2.41121 2.74361C3.194 3.33262 4.081 4 5.79991 4C7.5186 4 8.40582 3.33262 9.18839 2.74361C9.8756 2.22656 10.4186 1.81818 11.5996 1.81818C12.7809 1.81818 13.3236 2.22656 14.011 2.74361C14.7936 3.33262 15.6808 4 17.3995 4C19.1184 4 20.0056 3.33262 20.7884 2.74361C21.4756 2.22656 22.0186 1.81818 23.1999 1.81818C24.3811 1.81818 24.9239 2.22656 25.6113 2.74361C26.3939 3.33262 27.2811 4 29 4V2.18182C27.8187 2.18182 27.2758 1.77344 26.5886 1.25639Z" fill="#E8ECF3"/>
</svg>
