<svg width="460" height="23" viewBox="0 0 460 23" fill="none" xmlns="http://www.w3.org/2000/svg">
<path d="M438.434 14.4938C433.849 10.8292 429.893 7.66667 421.651 7.66667C413.41 7.66667 409.45 10.8292 404.869 14.4938C399.882 18.4805 394.232 23 383.299 23C372.374 23 366.727 18.4805 361.74 14.4938C357.163 10.8292 353.211 7.66667 344.973 7.66667C336.735 7.66667 332.779 10.8292 328.199 14.4938C323.215 18.4805 317.565 23 306.636 23C295.707 23 290.061 18.4805 285.077 14.49C280.5 10.8292 276.548 7.66667 268.314 7.66667C260.08 7.66667 256.128 10.8292 251.551 14.4938C246.568 18.4805 240.925 23 230 23V15.3333C238.23 15.3333 242.182 12.1708 246.759 8.51C251.743 4.5195 257.389 0 268.314 0C279.239 0 284.886 4.5195 289.873 8.50617C294.446 12.1708 298.398 15.3333 306.636 15.3333C314.874 15.3333 318.83 12.1708 323.411 8.50617C328.394 4.5195 334.044 0 344.973 0C355.902 0 361.548 4.5195 366.532 8.51C371.109 12.1708 375.061 15.3333 383.299 15.3333C391.54 15.3333 395.5 12.1708 400.081 8.50617C405.064 4.5195 410.719 0 421.651 0C432.584 0 438.234 4.5195 443.221 8.50617C447.802 12.1708 451.758 15.3333 460 15.3333V23C449.067 23 443.417 18.4805 438.434 14.4938Z" fill="#FFCC00"/>
<path d="M208.434 14.4938C203.849 10.8292 199.893 7.66667 191.651 7.66667C183.41 7.66667 179.45 10.8292 174.869 14.4938C169.882 18.4805 164.232 23 153.299 23C142.374 23 136.727 18.4805 131.74 14.4938C127.163 10.8292 123.211 7.66667 114.973 7.66667C106.735 7.66667 102.779 10.8292 98.1985 14.4938C93.2152 18.4805 87.5648 23 76.636 23C65.7072 23 60.0607 18.4805 55.0773 14.49C50.5003 10.8292 46.5482 7.66667 38.3142 7.66667C30.0802 7.66667 26.128 10.8292 21.551 14.4938C16.5677 18.4805 10.925 23 0 23V15.3333C8.23017 15.3333 12.1823 12.1708 16.7593 8.51C21.7427 4.5195 27.3892 0 38.3142 0C49.2392 0 54.8857 4.5195 59.8728 8.50617C64.446 12.1708 68.3982 15.3333 76.636 15.3333C84.8738 15.3333 88.8298 12.1708 93.4107 8.50617C98.394 4.5195 104.044 0 114.973 0C125.902 0 131.548 4.5195 136.532 8.51C141.109 12.1708 145.061 15.3333 153.299 15.3333C161.54 15.3333 165.5 12.1708 170.081 8.50617C175.064 4.5195 180.719 0 191.651 0C202.584 0 208.234 4.5195 213.221 8.50617C217.802 12.1708 221.758 15.3333 230 15.3333V23C219.067 23 213.417 18.4805 208.434 14.4938Z" fill="#FFCC00"/>
</svg>
