<svg width="96" height="92" viewBox="0 0 96 92" fill="none" xmlns="http://www.w3.org/2000/svg">
<path d="M0.16231 58.5943L0 57.7751L30.5892 51.5146L30.7639 52.3338L0.16231 58.5943Z" fill="#1A6AFF"/>
<path d="M3.271 35.5455L4.98149 30.8746C6.41731 26.9373 9.02675 25.629 12.3728 26.8028C15.7688 27.9889 16.9425 30.7034 15.4692 34.7385L13.8211 39.2383L3.271 35.5455ZM11.786 28.4169C9.62605 27.6588 7.80318 28.5025 6.77938 31.327L5.6557 34.4084L12.7224 36.8906L13.8211 33.907C14.8574 31.0213 14.0084 29.1872 11.786 28.4169Z" fill="white"/>
<path d="M18.5786 28.1232L9.13965 22.2418L10.1634 20.6644L19.6024 26.5458L18.5786 28.1232Z" fill="white"/>
<path d="M16.6306 22.5964L17.4796 21.1536C18.416 22.682 20.4012 22.8532 22.3489 20.8479C23.8597 19.295 23.7848 18.0967 23.0981 17.4609C22.4114 16.8128 21.6747 16.7517 19.9268 18.0233L18.2662 19.2828C16.4933 20.6156 15.02 20.7134 13.9463 19.7107C12.3981 18.2801 13.0723 16.2259 14.7578 14.4896C16.768 12.4109 19.2775 11.5672 21.5749 14.0861L20.7383 15.6023C19.315 13.4258 17.3548 14.4407 16.0563 15.7735C14.8702 16.9962 14.6704 18.06 15.432 18.7692C16.0813 19.3684 16.8429 19.3806 18.1039 18.488L19.702 17.2775C21.9744 15.6023 23.3977 15.4066 24.5713 16.4949C26.1445 17.9622 25.4328 20.3466 23.6724 22.144C21.0879 24.7729 18.3786 24.724 16.6306 22.5964Z" fill="white"/>
<path d="M34.7967 13.9027C34.4971 13.6826 34.2474 13.4992 33.5107 12.6677L33.0488 12.1542C31.9625 10.9436 30.9138 10.638 29.478 11.445L26.5814 13.0712L28.9661 17.1675L27.3055 18.0968L21.7495 8.55928L27.1307 5.5513C29.0285 4.48751 30.9887 4.27964 32.0999 6.18714C33.0737 7.85008 32.462 9.23179 30.6641 10.369C32.1249 9.74535 33.3984 9.96544 34.3847 11.0904L34.8342 11.5917C35.2961 12.1053 35.8205 12.5944 36.3574 13.0223L34.7967 13.9027ZM29.7401 10.3445C31.0137 9.6353 31.6504 8.77937 30.8638 7.44657C30.1771 6.27273 29.0285 6.57842 27.9048 7.20202L24.3215 9.20734L26.1568 12.3498L29.7401 10.3445Z" fill="white"/>
<path d="M45.2716 0.0610657L46.6075 6.55389C47.2193 9.53741 45.6461 11.4938 42.0878 12.1908C38.5295 12.8878 36.3196 11.6895 35.6953 8.69371L34.3594 2.20089L36.2447 1.83406L37.5431 8.14347C37.9302 10.0143 39.366 10.8702 41.7008 10.4178C44.0605 9.95315 45.0593 8.59589 44.6848 6.7373L43.3863 0.427892L45.2716 0.0610657Z" fill="white"/>
<path d="M48.3936 10.907L49.6796 0L55.298 0.635832C58.3319 0.978203 59.7428 2.21319 59.4681 4.56087C59.2184 6.71292 57.4954 7.65444 54.5613 7.3243L50.8032 6.90856L50.3038 11.1271L48.3936 10.907ZM57.7201 4.75651C57.8949 3.26475 56.946 2.64115 55.3229 2.45774L51.3651 2.01754L50.8906 6.07709L54.7237 6.50505C56.3343 6.67624 57.5578 6.17491 57.7201 4.75651Z" fill="white"/>
<path d="M62.3264 13.707L66.0595 5.29449L61.9893 3.55818L62.7259 1.89523L72.6018 6.11373L71.8652 7.77668L67.8074 6.0526L64.0868 14.4651L62.3264 13.707Z" fill="white"/>
<path d="M74.2627 21.4837L81.0672 15.1866L78.0208 12.0318L79.3692 10.7846L86.773 18.4635L85.4246 19.7107L82.3782 16.556L75.5737 22.8532L74.2627 21.4837Z" fill="white"/>
<path d="M82.7404 34.4207L87.5598 32.2075L84.4759 25.7758L79.6566 27.989L78.8325 26.2771L88.9706 21.6184L89.7947 23.3303L85.25 25.4212L88.3339 31.8529L92.866 29.762L93.6901 31.4738L83.552 36.1325L82.7404 34.4207Z" fill="white"/>
<path d="M94.864 36.0347L96.0002 45.1198L94.2148 45.3399L93.3033 38.1134L90.1695 38.4925L90.8937 44.2639L90.1321 44.3617L89.4079 38.5903L85.7247 39.0305L86.6361 46.2814L84.8757 46.4893L83.7271 37.3798L94.864 36.0347Z" fill="white"/>
<path d="M90.0194 52.9576C93.4654 54.0948 94.9012 56.9071 93.6152 60.6487C92.3292 64.4026 89.4451 65.7843 85.9991 64.6594C82.5656 63.5222 81.1173 60.7221 82.4158 56.9682C83.7018 53.2144 86.5734 51.8205 90.0194 52.9576ZM86.5484 63.0453C89.0955 63.889 90.9558 62.6907 91.8547 60.0618C92.7537 57.4451 92.0046 55.3909 89.4575 54.5594C86.9105 53.7157 85.0502 54.914 84.1513 57.5185C83.2648 60.1596 84.0014 62.2139 86.5484 63.0453Z" fill="white"/>
<path d="M74.9371 70.0638C75.2992 70.1494 75.6113 70.2228 76.6101 70.7119L77.2344 71.0053C78.7077 71.7145 79.7939 71.6045 80.8052 70.3084L82.8279 67.7161L79.0073 64.8549L80.1685 63.3754L89.0581 70.0516L85.2875 74.8692C83.9515 76.5689 82.241 77.4982 80.4556 76.1531C78.9074 74.9915 78.9199 73.4875 80.131 71.7635C79.0323 72.8884 77.7838 73.1696 76.4229 72.5093L75.8111 72.2159C75.1743 71.9102 74.5001 71.6656 73.8384 71.47L74.9371 70.0638ZM81.005 71.4333C80.106 72.5705 79.8563 73.5976 81.1049 74.5269C82.2036 75.3461 83.14 74.6247 83.9266 73.622L86.4361 70.4184L83.5021 68.2175L81.005 71.4333Z" fill="white"/>
<path d="M79.7061 80.8731L75.5235 83.6487C72.0026 85.9964 69.106 85.544 67.1084 82.6705C65.0857 79.7481 65.7724 76.8747 69.3932 74.4781L73.426 71.8002L79.7061 80.8731ZM68.5317 81.7168C69.8177 83.5754 71.8029 83.9422 74.3249 82.267L77.0842 80.4329L72.8766 74.3558L70.2047 76.141C67.6328 77.8284 67.2082 79.797 68.5317 81.7168Z" fill="white"/>
<path d="M62.9267 77.987L67.0095 88.197L65.2365 88.8818L61.1538 78.684L62.9267 77.987Z" fill="white"/>
<path d="M61.5153 90.3859L59.705 90.6549L50.9402 82.5725L50.9028 82.5848C50.9902 82.9394 51.1275 83.3918 51.2524 84.211L52.401 91.7065L50.5282 92L48.8677 81.1419L50.6281 80.8851L59.4303 88.9431H59.4553C59.3803 88.6129 59.2555 88.1605 59.1556 87.5125L57.982 79.8091L59.8423 79.5401L61.5153 90.3859Z" fill="white"/>
<path d="M38.9534 82.8783L44.447 83.9177C45.1212 82.9028 45.7954 81.8879 46.507 80.8853L48.5422 81.2765L41.825 91.1686L38.6662 90.5695L36.1816 78.9411L38.2168 79.3201C38.454 80.5062 38.7162 81.6923 38.9534 82.8783ZM39.1157 83.722C39.5527 85.923 39.9397 88.124 40.3143 90.3127H40.3518C41.5254 88.4174 42.724 86.5221 43.96 84.6391L39.1157 83.722Z" fill="white"/>
<path d="M28.3792 74.4778C28.3418 74.8324 28.3043 75.1503 27.9672 76.1897L27.755 76.8377C27.2555 78.3662 27.5177 79.4055 28.966 80.2003L31.8751 81.8021L34.2349 77.6937L35.8954 78.6107L30.4143 88.1849L25.0082 85.2136C23.0979 84.162 21.9118 82.6336 23.0105 80.7016C23.9594 79.0387 25.4951 78.8308 27.4054 79.7601V79.7479C26.1069 78.8431 25.6449 77.6692 26.1194 76.2508L26.3316 75.615C26.5439 74.9547 26.6937 74.27 26.8061 73.5974L28.3792 74.4778ZM27.8548 80.5549C26.5689 79.8457 25.5076 79.7601 24.7335 81.1052C24.0593 82.2912 24.9208 83.0982 26.0445 83.7096L29.6403 85.6905L31.4506 82.5358L27.8548 80.5549Z" fill="white"/>
<path d="M23.8969 70.504L21.0253 73.1574L19.09 81.5088L17.5044 79.8703C18.1536 77.706 18.8653 75.3583 19.7892 73.0351L19.7518 72.9862C17.3171 73.7565 14.9074 74.3434 12.6726 74.857L11.0869 73.2185L19.7143 71.7879L22.5859 69.1345L23.8969 70.504Z" fill="white"/>
<path d="M23.0234 37.6854C26.5443 27.4999 36.3953 20.1634 47.9817 20.1634C62.5271 20.1634 74.3258 31.7184 74.3258 45.9635C74.3258 50.1331 73.3145 54.0703 71.5291 57.5552" stroke="#1A6AFF" stroke-width="1.5" stroke-miterlimit="10" stroke-linecap="round" stroke-linejoin="round"/>
</svg>
