<svg width="274" height="81" viewBox="0 0 274 81" fill="none" xmlns="http://www.w3.org/2000/svg">
<path d="M42.6353 30.5535C42.8015 31.8626 40.224 32.8548 34.903 33.53C33.6678 39.3509 32.2653 44.6996 30.6957 49.576C28.3597 56.8668 25.7386 62.7563 22.8324 67.2445C19.1364 72.9486 15.1981 76.0658 11.0173 76.5964C9.20136 76.8268 7.7485 76.3675 6.65866 75.2185C5.56883 74.0695 4.89262 72.4603 4.63004 70.391C4.27636 67.6038 4.62687 64.4484 5.68158 60.9246C6.86235 57.0416 8.58031 53.8413 10.8355 51.3238C11.8524 50.2078 12.6354 49.615 13.1844 49.5453C13.6067 49.4917 13.8554 49.7606 13.9304 50.3518C14.0644 51.4075 13.6654 52.6597 12.7336 54.1081C11.0803 56.6351 9.92081 59.1637 9.25497 61.6941C8.58912 64.2245 8.38213 66.4821 8.634 68.4669C8.84299 70.1139 9.28362 71.3882 9.95586 72.2898C10.665 73.1439 11.5474 73.5039 12.6032 73.3699C14.2079 73.1663 15.8503 71.9066 17.5303 69.5908C19.026 67.513 20.2991 65.0342 21.3498 62.1547C23.1091 57.0825 24.8896 52.0077 26.6911 46.9303C29.0124 40.1992 30.293 36.0889 30.5331 34.5995C29.5618 34.7227 28.3244 35.1158 26.8208 35.7786C23.4074 37.2845 21.4896 38.0642 21.0673 38.1178C20.0115 38.2518 19.3667 37.9045 19.1329 37.076C18.7502 35.7514 20.5347 34.2591 24.4864 32.5991C28.4749 30.8915 32.2851 29.8072 35.9169 29.3464C38.1551 29.0623 39.7943 28.9616 40.8347 29.0441C41.9172 29.1213 42.5174 29.6244 42.6353 30.5535Z" fill="#FFCC00"/>
<path d="M47.8697 52.4172C48.2823 55.6689 47.3818 59.731 45.168 64.6033C42.8543 69.7029 40.4305 72.4134 37.8967 72.7349C36.7565 72.8796 35.8452 72.6305 35.1629 71.9876C34.5174 71.2971 34.1089 70.2762 33.9375 68.9249C33.4873 65.3775 34.3829 61.4448 36.6241 57.1269C39.0336 52.4443 41.8642 49.8966 45.116 49.484C45.9184 49.3822 46.5471 49.6028 47.0022 50.1458C47.4573 50.6888 47.7465 51.4459 47.8697 52.4172ZM45.022 54.3233C44.9149 53.4787 44.4812 53.1047 43.7211 53.2011C42.5809 53.3458 41.0899 55.1227 39.2483 58.5317C37.4013 61.8986 36.6064 64.5955 36.8636 66.6226C37.0619 68.1851 37.6678 68.902 38.6813 68.7734C39.4837 68.6716 40.2666 68.0788 41.0302 66.995C41.836 65.9058 42.3956 64.3973 42.7088 62.4695C42.0331 62.5552 41.7133 62.4027 41.7496 62.0119C41.696 61.5896 42.0061 60.8208 42.6798 59.7054C43.7431 57.9399 44.3431 56.9197 44.4799 56.6449C44.848 55.8258 45.0287 55.052 45.022 54.3233Z" fill="#FFCC00"/>
<path d="M66.1302 50.1644C66.1945 50.6712 65.8978 51.5456 65.2401 52.7876C63.1933 56.6089 62.1253 58.6754 62.0361 58.9871C61.5319 60.4242 61.1279 61.8057 60.8242 63.1315C60.4473 64.8958 60.3312 66.348 60.4759 67.4882C60.5723 68.2483 60.7821 68.8868 61.1051 69.4037C61.7988 70.4742 62.1671 71.1784 62.21 71.5163C62.3171 72.3609 61.9907 72.8314 61.2305 72.9279C60.4704 73.0243 59.667 72.6114 58.8205 71.6889C57.974 70.7665 57.4623 69.6085 57.2855 68.2149C57.0872 66.6524 57.1919 64.7725 57.5996 62.5752C57.8974 60.8639 58.3011 59.3108 58.8107 57.916C57.0395 59.5138 55.5412 61.5706 54.3156 64.0862C52.2433 68.3827 50.7426 70.5899 49.8136 70.7078C49.0957 70.7989 48.7307 70.459 48.7187 69.6882C48.6008 68.7591 49.0672 66.8548 50.1178 63.9752C50.6274 62.5803 51.2211 61.0031 51.8989 59.2436C54.1376 53.5528 55.637 50.6592 56.3971 50.5627C57.3262 50.4448 57.839 50.766 57.9354 51.5261C58.0158 52.1596 57.7406 53.2029 57.1097 54.6561C56.6417 55.7024 56.1948 56.746 55.7691 57.787C56.0272 57.4539 57.123 56.1133 59.0563 53.7654C61.1687 51.1373 62.9428 49.7321 64.3787 49.5499C65.3922 49.4213 65.976 49.6261 66.1302 50.1644Z" fill="#FFCC00"/>
<path d="M80.8388 48.1048C80.9192 48.7383 80.8518 49.3905 80.6365 50.0615C80.9114 50.1982 81.0756 50.4778 81.1291 50.9001C81.2363 51.7447 80.8149 53.6648 79.8648 56.6603C78.9147 59.6559 78.5012 61.6393 78.6245 62.6106C78.8013 64.0042 79.4287 64.8901 80.5065 65.2682C81.5843 65.6464 82.1769 66.2578 82.284 67.1024C82.3323 67.4824 82.2009 67.7995 81.8898 68.0535C81.5788 68.3075 81.1487 68.4694 80.5997 68.539C79.5862 68.6677 78.6538 68.4212 77.8026 67.7998C76.761 67.0308 76.1464 65.9073 75.9588 64.4293C75.9267 64.1759 75.9234 63.8116 75.9489 63.3363C76.0166 62.8557 76.0582 62.5071 76.0736 62.2906C74.4123 66.1059 72.4836 68.1529 70.2876 68.4316C68.345 68.6781 67.0756 67.466 66.4792 64.7954C66.0666 61.5437 66.9809 57.7589 69.2221 53.4409C71.637 48.8005 74.3014 46.2954 77.2153 45.9257C78.2288 45.7971 79.0607 45.9275 79.7108 46.317C80.3556 46.6643 80.7316 47.2602 80.8388 48.1048ZM78.6738 50.8255C78.2388 49.765 77.5991 49.2883 76.7545 49.3955C75.2764 49.5831 73.6853 51.4156 71.981 54.893C70.2714 58.3282 69.5399 61.0171 69.7864 62.9597C69.8935 63.8043 70.2377 64.3185 70.8189 64.5022C71.7854 64.6799 72.8946 63.445 74.1463 60.7973C75.6555 57.4734 77.1646 54.1494 78.6738 50.8255Z" fill="#FFCC00"/>
<path d="M102.641 39.1591C102.955 40.2779 102.157 41.0872 100.246 41.5871C96.9267 42.4804 94.7052 43.2343 93.5817 43.8488C91.8318 48.319 90.5427 52.1943 89.7146 55.4748C89.0226 58.1372 88.7516 60.0597 88.9017 61.2421C89.0196 62.1712 89.4375 62.5902 90.1554 62.4991C91 62.3919 92.0096 61.5557 93.1841 59.9907C94.3955 58.378 95.3294 56.6074 95.9858 54.679C96.2272 53.876 96.6013 53.4423 97.108 53.378C97.773 53.2078 98.1591 53.545 98.2663 54.3896C98.4913 56.1633 97.5822 58.4671 95.5388 61.301C93.5323 64.0873 91.5578 65.6037 89.6152 65.8502C88.5594 65.9842 87.6006 65.6982 86.7386 64.9923C85.8766 64.2864 85.3599 63.2578 85.1884 61.9064C84.9312 59.8793 85.3299 57.1039 86.3847 53.5802C87.1718 50.9915 88.136 48.4447 89.2771 45.9399C88.4331 46.3902 87.7788 46.6449 87.3143 46.7038C86.343 46.8271 85.7931 46.382 85.6644 45.3684C85.5626 44.5661 86.0842 43.942 87.2291 43.4964C88.4163 43.0454 89.6246 42.5917 90.854 42.1353C92.5314 38.4467 93.823 35.9442 94.7287 34.6278C95.6291 33.2691 96.5015 32.5362 97.3461 32.429C97.9689 32.2642 98.3338 32.6041 98.441 33.4487C98.5268 34.1243 98.2039 35.1308 97.4725 36.468C96.3938 38.45 95.773 39.6445 95.61 40.0514C96.5914 39.6694 97.4937 39.3403 98.3168 39.0642C99.14 38.7881 99.9106 38.6045 100.628 38.5134C101.895 38.3527 102.566 38.5679 102.641 39.1591Z" fill="#FFCC00"/>
<path d="M120.165 49.5511C120.385 51.2825 119.555 53.7049 117.676 56.8184C115.581 60.2596 113.393 62.1249 111.113 62.4143C110.353 62.5107 109.75 62.3297 109.306 61.8712C108.898 61.365 108.638 60.6686 108.526 59.7817C108.338 58.3037 108.594 56.4261 109.292 54.1491C109.99 51.8721 110.978 49.5154 112.256 47.0789C107.882 51.4959 104.956 56.5016 103.477 62.0959C102.947 64.0083 102.239 65.0207 101.352 65.1332C100.423 65.2511 99.8864 64.74 99.7417 63.5998C99.6185 62.6285 100.068 60.4258 101.092 56.9919C101.942 54.2236 102.803 51.7113 103.675 49.4551C106.051 43.4895 108.48 36.4229 110.962 28.2554C112.111 24.4621 113.319 22.4852 114.586 22.3244C115.726 22.1797 116.369 22.6775 116.513 23.8177C116.61 24.5778 115.93 26.6594 114.474 30.0625C113.06 33.4602 111.625 36.8606 110.168 40.2636C108.423 44.4328 107.344 47.4234 106.93 49.2352C108.663 46.9985 110.349 45.2397 111.989 43.9589C113.355 42.8845 114.502 42.2884 115.431 42.1705C116.444 42.0419 117.005 42.3999 117.112 43.2445C117.144 43.4978 117.087 43.8913 116.94 44.4249C115.42 47.6644 114.289 50.0821 113.548 51.6781C112.207 54.6374 111.59 56.5394 111.697 57.384C111.772 57.9752 112.084 58.236 112.633 58.1663C113.52 58.0538 114.293 57.5481 114.951 56.6492C115.025 56.5541 115.961 54.633 117.76 50.8861C118.386 49.7339 118.995 49.1203 119.586 49.0453C119.924 49.0024 120.117 49.171 120.165 49.5511Z" fill="#FFCC00"/>
<path d="M135.771 41.1342C135.852 41.7676 135.784 42.4198 135.569 43.0908C135.844 43.2276 136.008 43.5071 136.062 43.9294C136.169 44.774 135.747 46.6941 134.797 49.6896C133.847 52.6852 133.434 54.6686 133.557 55.6399C133.734 57.0335 134.361 57.9194 135.439 58.2975C136.517 58.6757 137.109 59.2871 137.216 60.1317C137.265 60.5118 137.133 60.8288 136.822 61.0828C136.511 61.3368 136.081 61.4987 135.532 61.5684C134.519 61.697 133.586 61.4505 132.735 60.8291C131.693 60.0602 131.079 58.9366 130.891 57.4586C130.859 57.2052 130.856 56.8409 130.881 56.3656C130.949 55.885 130.991 55.5365 131.006 55.32C129.345 59.1352 127.416 61.1822 125.22 61.4609C123.277 61.7074 122.008 60.4953 121.412 57.8248C120.999 54.573 121.913 50.7882 124.155 46.4702C126.569 41.8298 129.234 39.3247 132.148 38.955C133.161 38.8264 133.993 38.9568 134.643 39.3463C135.288 39.6936 135.664 40.2896 135.771 41.1342ZM133.606 43.8548C133.171 42.7943 132.531 42.3177 131.687 42.4248C130.209 42.6124 128.618 44.4449 126.913 47.9223C125.204 51.3576 124.472 54.0465 124.719 55.9891C124.826 56.8337 125.17 57.3478 125.751 57.5315C126.718 57.7093 127.827 56.4743 129.079 53.8267C130.588 50.5027 132.097 47.1787 133.606 43.8548Z" fill="#FFCC00"/>
<path d="M155.519 38.8213C155.583 39.3281 155.287 40.2025 154.629 41.4445C152.582 45.2658 151.514 47.3323 151.425 47.644C150.921 49.0811 150.517 50.4626 150.213 51.7885C149.836 53.5527 149.72 55.0049 149.865 56.1451C149.961 56.9053 150.171 57.5438 150.494 58.0606C151.188 59.1312 151.556 59.8354 151.599 60.1732C151.706 61.0178 151.38 61.4884 150.619 61.5848C149.859 61.6813 149.056 61.2683 148.209 60.3459C147.363 59.4234 146.851 58.2654 146.674 56.8718C146.476 55.3093 146.581 53.4294 146.989 51.2322C147.286 49.5209 147.69 47.9678 148.2 46.5729C146.428 48.1708 144.93 50.2275 143.705 52.7431C141.632 57.0396 140.131 59.2468 139.202 59.3647C138.485 59.4558 138.12 59.116 138.108 58.3451C137.99 57.416 138.456 55.5117 139.507 52.6321C140.016 51.2372 140.61 49.66 141.288 47.9005C143.526 42.2098 145.026 39.3161 145.786 39.2197C146.715 39.1018 147.228 39.4229 147.324 40.183C147.405 40.8165 147.129 41.8598 146.499 43.313C146.031 44.3593 145.584 45.403 145.158 46.4439C145.416 46.1108 146.512 44.7703 148.445 42.4223C150.558 39.7942 152.332 38.389 153.768 38.2068C154.781 38.0782 155.365 38.2831 155.519 38.8213Z" fill="#FFCC00"/>
<path d="M194.837 15.1017C195.094 17.1288 194.681 19.4554 193.599 22.0816C192.553 24.6602 191.071 27.1868 189.154 29.6615C188.785 30.1374 188.421 30.4839 188.063 30.701C187.704 30.9182 187.314 31.0536 186.891 31.1071C185.751 31.2518 185.114 30.7963 184.98 29.7405C184.926 29.3182 185 28.8799 185.199 28.4254C185.399 27.9709 185.747 27.4977 186.242 27.0058C188.456 24.8368 190.12 22.5659 191.235 20.1931C192.218 18.1373 192.622 16.4127 192.445 15.0191C192.268 13.6255 191.567 13.0064 190.343 13.1618C188.527 13.3922 186.286 15.1784 183.621 18.5203C181.55 21.1431 179.344 24.5555 177.003 28.7575C174.945 32.4943 173.57 35.3507 172.877 37.3268C171.889 40.0267 171.194 42.4964 170.792 44.7359C170.431 46.97 170.348 48.8473 170.541 50.3676C170.771 52.1835 171.328 53.5288 172.211 54.4037C173.095 55.2785 174.17 55.6355 175.437 55.4748C177.464 55.2175 179.563 54.0071 181.734 51.8436C184.132 49.4367 186.267 46.1406 188.139 41.9553C188.492 41.3527 188.879 40.853 189.301 40.4562C189.722 40.0594 190.102 39.8396 190.44 39.7967C190.693 39.7646 190.839 39.8963 190.876 40.1919C190.93 40.6142 190.862 41.0948 190.673 41.6338C188.739 46.6851 186.191 50.7845 183.029 53.932C180.136 56.8309 177.253 58.4625 174.382 58.8269C172.27 59.0949 170.498 58.6546 169.065 57.5063C167.632 56.3579 166.749 54.4746 166.417 51.8563C166.171 49.9137 166.256 47.7144 166.674 45.2584C167.134 42.7971 167.997 39.9627 169.264 36.7554C171.033 31.4245 173.925 25.9727 177.938 20.4001C182.43 14.2088 186.323 10.9041 189.617 10.4861C190.884 10.3254 192.025 10.6955 193.04 11.5965C194.056 12.4975 194.655 13.6659 194.837 15.1017Z" fill="#FFCC00"/>
<path d="M213.798 35.481C213.911 36.3679 213.057 37.5918 211.239 39.1528C209.457 40.6662 207.848 41.514 206.412 41.6962C205.441 41.8195 204.651 41.6837 204.043 41.2888C203.435 40.8939 203.064 40.1686 202.931 39.1129C202.877 38.6905 202.855 38.35 202.865 38.0913C201.28 40.1376 199.774 42.4742 198.348 45.101C196.817 47.9129 196.021 49.9234 195.96 51.1327C195.813 52.0094 195.498 52.736 195.013 53.3124C194.565 53.8413 194.046 54.1432 193.455 54.2182C192.568 54.3308 192.071 53.9647 191.964 53.1201C191.749 51.4309 192.838 47.4953 195.228 41.3132C197.662 35.1257 199.617 31.9382 201.095 31.7506C201.644 31.681 201.985 31.8308 202.118 32.2002C202.166 32.5802 201.498 34.081 200.114 36.7025C199.351 38.1295 198.855 39.2868 198.624 40.1743C200.384 38.1487 202.143 36.1232 203.903 34.0976C206.127 31.6699 207.703 30.3972 208.632 30.2793C209.477 30.1721 209.934 30.393 210.004 30.942C210.068 31.4488 209.842 32.0353 209.326 32.7015C208.235 33.9127 207.44 34.9147 206.94 35.7077C206.482 36.4952 206.319 37.0737 206.452 37.4431C206.548 37.86 206.912 38.0283 207.546 37.9479C208.264 37.8568 209.002 37.5914 209.762 37.1518C210.558 36.6645 211.193 36.0904 211.667 35.4296C212.121 34.9429 212.495 34.6809 212.791 34.6434C213.371 34.4839 213.707 34.7631 213.798 35.481Z" fill="#FFCC00"/>
<path d="M227.019 29.684C227.431 32.9357 226.531 36.9978 224.317 41.8701C222.003 46.9696 219.579 49.6802 217.046 50.0017C215.905 50.1464 214.994 49.8973 214.312 49.2544C213.666 48.5639 213.258 47.543 213.086 46.1916C212.636 42.6443 213.532 38.7116 215.773 34.3937C218.183 29.711 221.013 27.1634 224.265 26.7508C225.067 26.649 225.696 26.8696 226.151 27.4126C226.606 27.9555 226.895 28.7127 227.019 29.684ZM224.171 31.5901C224.064 30.7455 223.63 30.3714 222.87 30.4679C221.73 30.6126 220.239 32.3895 218.397 35.7985C216.55 39.1654 215.755 41.8623 216.012 43.8894C216.211 45.4519 216.817 46.1688 217.83 46.0402C218.633 45.9384 219.416 45.3456 220.179 44.2617C220.985 43.1725 221.544 41.6641 221.858 39.7363C221.182 39.822 220.862 39.6695 220.898 39.2787C220.845 38.8564 221.155 38.0876 221.829 36.9722C222.892 35.2067 223.492 34.1865 223.629 33.9117C223.997 33.0926 224.178 32.3188 224.171 31.5901Z" fill="#FFCC00"/>
<path d="M252.279 26.8004C252.547 28.9119 251.469 32.5888 249.045 37.8311C246.384 43.5755 243.871 46.5977 241.506 46.8978C239.648 47.1336 238.59 46.238 238.333 44.2109C238.129 42.6062 238.469 40.5463 239.351 38.0314C236.268 44.1725 233.46 47.4039 230.926 47.7254C229.49 47.9076 228.668 47.1752 228.459 45.5282C228.218 43.6279 228.98 40.5059 230.746 36.1625C232.644 31.5019 234.437 29.0645 236.126 28.8501C237.14 28.7215 237.695 29.0373 237.791 29.7974C237.829 30.093 237.816 30.3307 237.753 30.5103C237.601 31.0016 237.224 31.5858 236.624 32.2627C235.812 33.3097 234.82 34.9589 233.647 37.2104C232.368 39.6469 231.777 41.2452 231.874 42.0053C231.917 42.3432 232.065 42.496 232.318 42.4639C233.316 42.5518 234.855 40.9834 236.935 37.7587C238.288 35.5702 239.64 33.3818 240.993 31.1933C241.894 29.8346 242.83 29.0937 243.801 28.9704C244.603 28.8686 245.053 29.1978 245.149 29.9579C245.203 30.3802 245.043 30.9798 244.669 31.7567C243.912 33.2259 243.205 34.9248 242.548 36.8532C241.771 39.1832 241.444 40.8338 241.568 41.8051C241.653 42.4808 241.95 42.7865 242.456 42.7222C243.216 42.6257 244.433 40.7121 246.105 36.9812C247.819 33.2451 248.588 30.6802 248.411 29.2866C248.388 28.088 248.584 27.0977 248.999 26.3154C249.452 25.4856 249.968 24.991 250.549 24.8315C251.52 24.7082 252.097 25.3645 252.279 26.8004Z" fill="#FFCC00"/>
<path d="M271.32 32.6229C271.508 34.101 270.218 36.2814 267.451 39.1642C264.495 42.2427 261.708 43.9481 259.089 44.2803C257.78 44.4465 256.557 44.1082 255.421 43.2655C254.321 42.3752 253.68 41.2122 253.497 39.7763C253.267 37.9604 253.564 35.9059 254.389 33.6129C255.082 31.6368 255.948 30.0037 256.985 28.7134C258.449 26.7254 259.769 25.292 260.945 24.4134C262.116 23.4925 263.123 22.9784 263.968 22.8712C264.77 22.7694 265.457 22.9397 266.028 23.3822C266.599 23.8247 266.93 24.4048 267.021 25.1228C267.193 26.4741 266.681 28.1911 265.486 30.2737C264.613 31.8435 263.552 33.2869 262.303 34.6039C261.75 35.3178 260.919 36.0453 259.812 36.7866C259.021 37.3161 258.14 37.8141 257.169 38.2805C257.298 39.294 257.606 40.0274 258.092 40.4806C258.616 40.8862 259.279 41.038 260.081 40.9362C261.39 40.7701 262.915 39.933 264.654 38.425C266.436 36.9115 267.953 35.1742 269.206 33.213C269.78 32.3249 270.236 31.8594 270.574 31.8165C270.996 31.7629 271.245 32.0317 271.32 32.6229ZM264.079 27.2983C264.015 26.7916 263.724 26.5281 263.206 26.508C262.531 26.5937 261.787 27.1601 260.976 28.207C260.344 28.9738 259.641 30.0285 258.867 31.3711C258.131 32.666 257.586 33.7864 257.234 34.7322C258.628 34.5554 260.152 33.5467 261.806 31.7061C263.461 29.8656 264.218 28.3963 264.079 27.2983Z" fill="#FFCC00"/>
</svg>
