<svg width="50" height="50" viewBox="0 0 50 50" fill="none" xmlns="http://www.w3.org/2000/svg">
<path d="M13.0138 3.04425C13.656 2.69353 14.3148 2.37087 14.9889 2.07754C15.1727 1.99719 15.3681 1.94745 15.5672 1.92577C17.0214 1.76636 17.9585 1.41819 18.9364 1.05471C19.8863 0.701442 20.8592 0.339242 22.2827 0.14539C22.9491 0.0548399 23.7126 0 24.6203 0C24.665 0 24.7097 -7.00541e-07 24.7531 0.00127465H24.7888C27.5248 0.0216802 28.9368 0.545849 30.3055 1.05471C31.512 1.50236 32.6572 1.9296 34.7854 2.00357C34.8148 2.00485 34.8454 2.01122 34.8722 2.0227C35.3995 2.25226 36.2562 2.68843 36.8639 3.00599C37.0835 3.12077 37.0145 3.44854 36.7681 3.46767C36.3724 3.497 35.9396 3.51358 35.4621 3.51358C32.8882 3.51358 31.6332 3.04681 30.3067 2.55325C28.9113 2.03418 27.4686 1.49853 24.6229 1.49853C21.7771 1.49853 20.3344 2.03418 18.939 2.55325C17.6112 3.04681 16.3562 3.51358 13.7837 3.51358C13.5551 3.51358 13.3381 3.50976 13.1287 3.50338C12.8772 3.49445 12.7955 3.16286 13.0138 3.04425ZM7.33378 7.28351C7.58274 7.03609 7.8368 6.79378 8.09597 6.55656C8.16364 6.49407 8.26194 6.47621 8.34876 6.5081C8.44068 6.54253 8.5326 6.57569 8.62453 6.61013C9.95357 7.10369 11.2073 7.57046 13.7798 7.57046C16.3524 7.57046 17.6087 7.10369 18.9352 6.61013C20.3306 6.09106 21.7733 5.55541 24.619 5.55541C27.4648 5.55541 28.9075 6.09106 30.3029 6.61013C30.8238 6.80398 31.3332 6.99273 31.9154 7.15215C31.9997 7.17511 32.0903 7.15087 32.1529 7.09093C32.855 6.40734 33.5968 5.76585 34.3743 5.16771C34.4139 5.1371 34.4611 5.11924 34.5109 5.11669L36.6647 4.98916C37.6299 4.92922 38.41 4.80041 39.0853 4.63461C39.2883 4.58487 39.5041 4.62824 39.6726 4.75067C40.6621 5.46869 41.5966 6.25813 42.4699 7.11006C42.6039 7.24142 42.5452 7.47226 42.3639 7.52072C41.7179 7.69672 41.1625 7.90333 40.6136 8.10738C39.2858 8.60094 38.0321 9.06772 35.4582 9.06772C32.8844 9.06772 31.6294 8.60094 30.3029 8.10738C28.9075 7.58832 27.4648 7.05267 24.619 7.05267C21.7733 7.05267 20.3306 7.58832 18.9352 8.10738C17.6074 8.60094 16.3524 9.06772 13.7798 9.06772C11.2073 9.06772 9.9523 8.60094 8.62453 8.10738C8.24152 7.96454 7.85468 7.82171 7.43592 7.68779C7.26229 7.63295 7.20356 7.41232 7.33378 7.28351ZM3.45772 12.2535C3.65688 11.9194 3.86243 11.5904 4.07692 11.2664C4.12543 11.1924 4.21225 11.1504 4.30034 11.1567C6.28689 11.2958 7.47294 11.737 8.6258 12.1655C9.95485 12.6591 11.2086 13.1259 13.7811 13.1259C16.3537 13.1259 17.61 12.6591 18.9364 12.1655C20.3319 11.6465 21.7746 11.1108 24.6203 11.1108C26.2226 11.1108 27.3805 11.2804 28.3342 11.5215C28.4364 11.547 28.5423 11.5036 28.5998 11.4156L29.6965 9.70157C29.759 9.60464 29.8803 9.56383 29.9888 9.60337C31.3204 10.0957 32.758 10.5803 35.4608 10.5803C38.3066 10.5803 39.7492 10.0434 41.1447 9.52557C41.9656 9.22076 42.7571 8.92488 43.85 8.74506C43.9355 8.73103 44.0224 8.76291 44.0772 8.82923C44.6964 9.55745 45.2748 10.3201 45.8072 11.1159C45.8085 11.1172 45.8097 11.1198 45.811 11.121C45.8889 11.2384 45.9668 11.3557 46.0434 11.4743C46.0459 11.4781 46.0485 11.4807 46.0498 11.4845C46.2093 11.7319 46.3817 12.0163 46.5145 12.2382C46.6128 12.4015 46.494 12.6081 46.3025 12.6081C46.3013 12.6081 46.3 12.6081 46.2974 12.6081C43.4517 12.6081 42.009 13.1437 40.6136 13.6628C39.2858 14.1564 38.0321 14.6231 35.4582 14.6231C32.8844 14.6231 31.6294 14.1564 30.3029 13.6628C28.9075 13.1437 27.4648 12.6081 24.619 12.6081C21.7733 12.6081 20.3306 13.1437 18.9352 13.6628C17.6074 14.1564 16.3524 14.6231 13.7798 14.6231C11.2073 14.6231 9.9523 14.1564 8.62453 13.6628C7.35421 13.1896 6.04176 12.7025 3.66199 12.6196C3.47687 12.6145 3.36196 12.413 3.45772 12.2535ZM0.980916 17.9263C1.08433 17.5743 1.1954 17.2248 1.31541 16.8792C1.34733 16.7874 1.43159 16.7224 1.52862 16.7147C1.95887 16.6828 2.42742 16.6662 2.94065 16.6662C5.7877 16.6662 7.23037 17.2019 8.62453 17.721C9.95357 18.2145 11.2073 18.6813 13.7798 18.6813C16.3524 18.6813 17.6087 18.2145 18.9352 17.721C20.3306 17.2019 21.7733 16.6662 24.619 16.6662C25.0455 16.6662 25.44 16.679 25.8089 16.7007C25.9187 16.7071 26.0196 16.6407 26.0566 16.5374L26.7882 14.4599C26.8277 14.3477 26.9439 14.2801 27.0614 14.2992C28.1581 14.4803 28.9534 14.7749 29.7756 15.081C31.1698 15.5988 32.6125 16.1357 35.4595 16.1357C38.3053 16.1357 39.748 15.5988 41.1434 15.081C42.4712 14.5874 43.7249 14.1206 46.2987 14.1206C46.697 14.1206 47.0635 14.1321 47.4031 14.1525C47.4937 14.1576 47.5741 14.2137 47.6112 14.2966C47.795 14.7048 48.3478 15.9546 48.6453 16.8129C48.7832 17.2108 48.9108 17.6125 49.0283 18.0168C49.0781 18.1865 48.9338 18.3522 48.7576 18.3267C48.0644 18.226 47.2613 18.1635 46.2974 18.1635C43.4517 18.1635 42.009 18.6991 40.6136 19.2182C39.2858 19.7118 38.0321 20.1785 35.4582 20.1785C32.8844 20.1785 31.6294 19.7118 30.3029 19.2182C28.9075 18.6991 27.4648 18.1635 24.619 18.1635C21.7733 18.1635 20.3306 18.6991 18.9352 19.2182C17.6074 19.7118 16.3524 20.1785 13.7798 20.1785C11.2073 20.1785 9.9523 19.7118 8.62453 19.2182C7.23037 18.6991 5.7877 18.1635 2.94065 18.1635C2.30996 18.1635 1.74821 18.189 1.24009 18.2362C1.06773 18.254 0.932401 18.0921 0.980916 17.9263ZM0.000408192 23.6602C0.018282 23.3159 0.0438175 22.9741 0.0757351 22.6336C0.0859487 22.5214 0.171487 22.4321 0.28256 22.4142C1.02177 22.2956 1.88482 22.2217 2.94065 22.2217C5.7877 22.2217 7.23037 22.7573 8.62453 23.2764C9.95357 23.7699 11.2073 24.2367 13.7798 24.2367C16.3524 24.2367 17.6087 23.7699 18.9352 23.2764C20.3306 22.7573 21.7733 22.2217 24.619 22.2217C24.6599 22.2217 24.6995 22.2217 24.7391 22.2229L24.9969 19.9043C25.011 19.7768 25.1221 19.6824 25.2497 19.6863C27.4061 19.7564 28.5589 20.1849 29.7744 20.6364C31.1685 21.1542 32.6112 21.6911 35.4582 21.6911C38.304 21.6911 39.7467 21.1542 41.1421 20.6364C42.4699 20.1428 43.7236 19.6761 46.2974 19.6761C47.5958 19.6761 48.5585 19.7947 49.3641 19.977C49.4585 19.9987 49.5313 20.074 49.5505 20.1683C49.7075 20.968 49.825 21.7804 49.9041 22.6055C49.9411 23.0047 49.9705 23.4052 49.9897 23.8056C49.9973 23.9676 49.8479 24.09 49.6896 24.0543C48.7972 23.8541 47.7235 23.7189 46.2974 23.7189C43.4517 23.7189 42.009 24.2546 40.6136 24.7736C39.2858 25.2672 38.0321 25.734 35.4582 25.734C32.8844 25.734 31.6294 25.2672 30.3029 24.7736C28.9075 24.2546 27.4648 23.7189 24.619 23.7189C21.7733 23.7189 20.3306 24.2546 18.9352 24.7736C17.6074 25.2672 16.3524 25.734 13.7798 25.734C11.2073 25.734 9.9523 25.2672 8.62453 24.7736C7.23037 24.2546 5.7877 23.7189 2.94065 23.7189C1.8861 23.7189 1.02305 23.7929 0.285114 23.9115C0.130633 23.9383 -0.00852872 23.8158 0.000408192 23.6602ZM28.8475 49.7054C27.5912 49.9005 26.303 50 24.9918 50C23.4802 50 22.0005 49.8661 20.563 49.6085C20.3115 49.5638 20.2859 49.2118 20.5298 49.1328C21.5486 48.8025 22.7282 48.5512 24.6203 48.5512C26.243 48.5512 27.8836 48.9389 28.8794 49.2259C29.1309 49.2998 29.1066 49.6646 28.8475 49.7054ZM42.475 42.8861C41.1855 44.1449 39.7607 45.2646 38.2236 46.2224H38.2248C37.921 46.4112 37.612 46.5935 37.3018 46.7721C36.6622 47.133 36.0047 47.4684 35.3318 47.7732C35.0548 47.8982 34.7484 47.9492 34.4445 47.9327C32.5295 47.8268 31.443 47.4225 30.3016 46.9991C28.9062 46.48 27.4635 45.9444 24.6178 45.9444C21.772 45.9444 20.3293 46.48 18.9339 46.9991C17.8449 47.4047 16.8044 47.7911 15.0438 47.9161C15.0029 47.9186 14.9608 47.9123 14.9225 47.8957C14.2382 47.596 13.5705 47.2657 12.9206 46.9073C12.6959 46.7836 12.7904 46.4367 13.047 46.4469C13.2781 46.4558 13.522 46.4609 13.7773 46.4609C16.3511 46.4609 17.6061 45.9941 18.9326 45.5006C20.328 44.9815 21.7707 44.4459 24.6165 44.4459C27.4623 44.4459 28.9049 44.9815 30.3004 45.5006C31.6281 45.9941 32.8831 46.4609 35.4557 46.4609C35.6102 46.4609 35.7608 46.4596 35.9064 46.4558C36.1464 46.4507 36.2357 46.1357 36.034 46.0056C35.2054 45.47 34.4113 44.8871 33.6543 44.2609C33.4704 44.1092 33.584 43.812 33.8215 43.8248C34.7548 43.8796 36.0723 43.9064 36.2638 43.8987C38.5874 43.8069 39.882 43.3248 41.1383 42.8593C41.497 42.7267 41.8494 42.5953 42.2248 42.4742C42.4763 42.3951 42.6614 42.705 42.475 42.8861ZM47.1056 36.7109C46.6358 37.5947 46.1161 38.4466 45.5467 39.2628C45.285 39.6391 45.0105 40.0077 44.7296 40.3711C44.6875 40.4247 44.625 40.4578 44.5573 40.4642C42.798 40.63 41.6924 41.0407 40.6136 41.4424C39.2858 41.936 38.0321 42.4028 35.4582 42.4028C32.8844 42.4028 31.6294 41.936 30.3029 41.4424C28.9075 40.9234 27.4648 40.3877 24.619 40.3877C21.7733 40.3877 20.3306 40.9234 18.9352 41.4424C17.6074 41.936 16.3524 42.4028 13.7798 42.4028C11.2073 42.4028 9.9523 41.936 8.62453 41.4424C7.7219 41.107 6.80012 40.7639 5.4915 40.5624C5.43022 40.5535 5.37277 40.5216 5.33447 40.4719C5.04593 40.1084 4.76889 39.736 4.50078 39.3559C4.37949 39.1838 4.51738 38.9491 4.72676 38.9695C6.46179 39.1379 7.55721 39.546 8.6258 39.9439C9.95485 40.4374 11.2086 40.9042 13.7811 40.9042C16.3537 40.9042 17.61 40.4374 18.9364 39.9439C20.3319 39.4248 21.7746 38.8892 24.6203 38.8892C26.3796 38.8892 27.6014 39.0945 28.6087 39.3725C28.8296 39.4337 29.0058 39.1889 28.8768 38.9989C28.444 38.3599 28.0393 37.6993 27.6653 37.0195C27.5567 36.8218 27.7508 36.5948 27.9627 36.6701L30.4842 37.5615C31.6907 37.985 33.0874 38.3586 35.4595 38.3586C38.3053 38.3586 39.748 37.8217 41.1434 37.3039C42.4712 36.8104 43.7249 36.3436 46.2987 36.3436C46.5055 36.3436 46.7047 36.3461 46.8949 36.3525C47.0762 36.3576 47.1911 36.5502 47.1056 36.7109ZM49.2109 31.3187C48.9555 32.2956 48.644 33.2496 48.2776 34.1755C48.2329 34.289 48.1206 34.5594 48.0465 34.7379C48.0057 34.8361 47.9061 34.8961 47.7988 34.8871C47.3443 34.8501 46.8464 34.831 46.2974 34.831C43.4517 34.831 42.009 35.3667 40.6136 35.8857C39.2858 36.3793 38.0321 36.8461 35.4582 36.8461C32.8844 36.8461 31.6294 36.3793 30.3029 35.8857C28.9075 35.3667 27.4648 34.831 24.619 34.831C21.7733 34.831 20.3306 35.3667 18.9352 35.8857C17.6074 36.3793 16.3524 36.8461 13.7798 36.8461C11.2073 36.8461 9.9523 36.3793 8.62453 35.8857C7.23037 35.3667 5.7877 34.831 2.94065 34.831C2.66616 34.831 2.40444 34.8361 2.1542 34.8463C2.05207 34.8501 1.95759 34.7915 1.91674 34.6971C1.77758 34.3668 1.6448 34.0339 1.52096 33.6972C1.46351 33.5442 1.57203 33.3784 1.73545 33.3682C2.10824 33.3452 2.50785 33.3325 2.93938 33.3325C5.78642 33.3325 7.22909 33.8681 8.62325 34.3872C9.9523 34.8808 11.206 35.3475 13.7786 35.3475C16.3511 35.3475 17.6074 34.8808 18.9339 34.3872C20.3293 33.8681 21.772 33.3325 24.6178 33.3325C24.9867 33.3325 25.3327 33.3414 25.657 33.358C25.8319 33.3669 25.9609 33.196 25.9021 33.0315L25.2268 31.1325C25.168 30.9693 25.2957 30.7971 25.4693 30.806C27.4852 30.8966 28.6011 31.3123 29.7744 31.7472C31.1685 32.2663 32.6112 32.8019 35.4582 32.8019C38.304 32.8019 39.7467 32.2663 41.1421 31.7472C42.4699 31.2537 43.7236 30.7869 46.2974 30.7869C47.4145 30.7869 48.2853 30.8762 49.0181 31.0165C49.1585 31.0432 49.2466 31.1822 49.2109 31.3187ZM49.8199 28.152C49.7892 28.3905 49.7573 28.629 49.7203 28.8649C49.719 28.8726 49.7177 28.879 49.7164 28.8866C49.6922 29.0397 49.6666 29.1927 49.6398 29.3457C49.6169 29.4758 49.4943 29.5638 49.3641 29.5447C48.81 29.4644 47.3839 29.2756 46.2974 29.2756C43.4517 29.2756 42.009 29.8112 40.6136 30.3303C39.2858 30.8239 38.0321 31.2906 35.4582 31.2906C32.8844 31.2906 31.6294 30.8239 30.3029 30.3303C28.9075 29.8112 27.4648 29.2756 24.619 29.2756C21.7733 29.2756 20.3306 29.8112 18.9352 30.3303C17.6074 30.8239 16.3524 31.2906 13.7798 31.2906C11.2073 31.2906 9.9523 30.8239 8.62453 30.3303C7.23037 29.8112 5.7877 29.2756 2.94065 29.2756C2.03037 29.2756 1.26307 29.3304 0.595352 29.4223C0.465128 29.4401 0.342565 29.3521 0.320861 29.222C0.264687 28.893 0.214896 28.5614 0.171488 28.2285C0.154891 28.0972 0.246812 27.976 0.378313 27.9556C1.09582 27.8447 1.9295 27.7771 2.93938 27.7771C5.78642 27.7771 7.22909 28.3127 8.62325 28.8318C9.9523 29.3253 11.206 29.7921 13.7786 29.7921C16.3511 29.7921 17.6074 29.3253 18.9339 28.8318C20.3293 28.3127 21.772 27.7771 24.6178 27.7771C24.6586 27.7771 24.6982 27.7771 24.7391 27.7783L24.4888 25.5044C24.4722 25.359 24.5884 25.2315 24.7352 25.2327C27.2299 25.2468 28.4657 25.7059 29.7744 26.1931C31.1685 26.7122 32.6112 27.2478 35.4582 27.2478C38.304 27.2478 39.7467 26.7122 41.1421 26.1931C42.4699 25.6995 43.7236 25.2327 46.2974 25.2327C47.8473 25.2327 48.9198 25.4024 49.8173 25.6447C49.9271 25.674 50.0037 25.776 49.9999 25.8908C49.9731 26.6509 49.9143 27.4021 49.8211 28.1431C49.8211 28.1456 49.8199 28.1482 49.8199 28.152Z" fill="#E8ECF3"/>
</svg>
