<?xml version="1.0" encoding="utf-8"?>
<!-- Generator: Adobe Illustrator 22.0.1, SVG Export Plug-In . SVG Version: 6.00 Build 0)  -->
<svg version="1.1" id="Слой_1" xmlns="http://www.w3.org/2000/svg" xmlns:xlink="http://www.w3.org/1999/xlink" x="0px" y="0px"
	 viewBox="0 0 47.2 22" style="enable-background:new 0 0 47.2 22;" xml:space="preserve">
<style type="text/css">
	.st0{fill:#D9DDE4;}
</style>
<path class="st0" d="M11,0C8.1,0,5.3,1.2,3.2,3.2C1.2,5.3,0,8.1,0,11c0,2.9,1.2,5.7,3.2,7.8S8.1,22,11,22V11V0z"/>
<circle class="st0" cx="36.1" cy="11" r="11"/>
<path class="st0" d="M23.5,22c-1.4,0-2.9-0.3-4.2-0.8c-1.3-0.6-2.5-1.4-3.6-2.4c-1-1-1.8-2.2-2.4-3.6c-0.6-1.3-0.8-2.8-0.8-4.2
	c0-1.4,0.3-2.9,0.8-4.2c0.6-1.3,1.4-2.5,2.4-3.6c1-1,2.2-1.8,3.6-2.4C20.7,0.3,22.1,0,23.5,0v11V22z"/>
</svg>
