<?xml version="1.0" encoding="utf-8"?>
<!-- Generator: Adobe Illustrator 22.0.1, SVG Export Plug-In . SVG Version: 6.00 Build 0)  -->
<svg version="1.1" xmlns="http://www.w3.org/2000/svg" xmlns:xlink="http://www.w3.org/1999/xlink" x="0px" y="0px"
	 viewBox="0 0 597 609" style="enable-background:new 0 0 597 609;" xml:space="preserve">
<style type="text/css">
	.st0{display:none;}
	.st1{fill:none;stroke:#E8ECF3;stroke-width:2.5;stroke-miterlimit:10;}
	.st2{fill:none;stroke:#E8ECF3;stroke-width:3;stroke-miterlimit:10;}
	.st3{fill:none;stroke:#E8ECF3;stroke-width:2;stroke-miterlimit:10;}
	.st4{fill:#0376B4;}
	.st5{fill:#AFD7BF;}
	.st6{fill:none;stroke:#6FC392;stroke-width:3;stroke-miterlimit:10;}
	.st7{fill:none;stroke:#FFFFFF;stroke-width:3;stroke-miterlimit:10;}
	.st8{fill:none;stroke:#000000;stroke-width:3;}
	.st9{display:inline;fill:#1A6AFF;}
	.st10{display:inline;fill:#FFFFFF;}
	.st11{fill:#1A6AFF;}
	.st12{fill:none;stroke:#1A6AFF;stroke-width:3;stroke-miterlimit:10;}
	.st13{fill:none;stroke:#E8ECF3;stroke-width:1.5;stroke-miterlimit:10;}
	.st14{fill:none;stroke:#E8ECF3;stroke-miterlimit:10;}
</style>
<g id="Слой_1" class="st0">
	
		<image style="display:inline;overflow:visible;" width="536" height="537" xlink:href="tides-www/static/moon.png"  transform="matrix(1 0 0 1 30.4941 35.4974)">
	</image>
</g>
<g id="Слой_2">
	<path class="st1" d="M267,448.3c0,0,19.8-2.3,31.2-2.7c11.3-0.3,26.7,4.8,39.7,2.3s24.3-14.3,33.7-23.7c9.3-9.3,21.3-14,30.2-20
		c8.8-6,17.8-12.5,20.3-19.7c2.5-7.2,4.7-24.2,8-37.2s12.8-23.2,14.7-42.7c1.8-19.5-13.7-36.3-15.8-47.7
		c-2.2-11.3-5.3-32.3-11.8-42.7s-30.3-17.8-38.8-26s-24.7-23.7-35.3-28c-10.7-4.3-32.7,0.3-46.5,1.3c-13.8,1-26-3.3-39.3-2.8
		s-23.5,9.2-28.8,15.8c-5.3,6.7-22,19.8-32,23.8s-19,10.5-25.2,20.2c-6.2,9.7-5.3,22.5-8.7,35.7c-3.3,13.2-15.2,34.2-16.8,42.8
		c-1.7,8.7,1.5,22.3,7,32.3s10.7,24,12.2,37.3s6.5,23.5,13,29.7c6.5,6.2,22.7,14.7,22.7,14.7s22.2,13.2,32.8,22.8
		C243.8,443.8,252.2,449.2,267,448.3z"/>
	<path class="st2" d="M272.7,423.3c6.6-0.2,22.7-2.2,32.2-1c9.5,1.2,19.5,4,29.8,0.7c10.3-3.3,17.5-13.7,25.3-21.3
		c7.8-7.7,21.3-11.5,30.7-17.3c9.3-5.8,11.3-14.7,13.5-29.7c2.2-15,4.7-18.2,9.2-27c4.5-8.8,8.8-21.2,7.7-28.5
		c-1.2-7.3-15.3-29.7-16.2-39c-0.8-9.3-3.7-25.5-9.3-32.3c-5.7-6.8-23.7-13-30.2-18s-21.2-21.3-29.8-25.3s-24.5,0.7-36.8,2
		c-12.3,1.3-25.5-4.2-38.5-3.2s-27.8,23.8-39.2,28.8c-11.3,5-27.5,13.5-30.8,21.8c-3.3,8.3-2.2,21.8-5.5,32
		c-3.3,10.2-14.8,22.5-15.2,36.8c-0.3,14.3,7.7,21.3,12.2,31c4.5,9.7,5.3,25.5,6.3,32.2s5.2,12.7,9.3,16.3
		c4.2,3.7,22.5,13.5,22.5,13.5s8,4.3,19.3,15.3C250.5,422.2,266.5,423.5,272.7,423.3z"/>
	<path class="st3" d="M227.3,458.4c9.2,8,20.8,12.6,33,12.7c0.2,0,0.3,0,0.5,0c11.5,0,38.2-2,55.8-0.7c17.7,1.3,31.2,1.7,41.7-5.3
		s29.7-24.7,38.3-30.2c8.7-5.5,28.2-15.7,37.3-26.8c9.2-11.2,13.3-29.3,16.5-46.2s12.5-29.7,16.2-40.2c3.7-10.5,5-26.8-2-40.3
		s-13.8-34.7-16.5-49.7c-2.7-15-10-31.2-16.3-36.5c-6.3-5.3-35.8-22.8-44.8-30.7c-9-7.8-29.3-26.2-42-28.5
		c-12.7-2.3-38.5,3.3-56.5,2.3S249.2,133,235,140c-14.2,7-29.8,25.5-40.5,32.5c-10.7,7-28.7,15.8-36.8,24.8
		c-8.2,9-12.8,24.7-13.7,33.5c-0.8,8.8-10,35.5-16.8,48.2s-6.7,25.8-5.3,34.5s9.2,22.8,14.7,37.5s8.8,32.8,10.7,40.8
		c1.8,8,11,19.5,18.2,25.3c7.2,5.8,29.7,17.3,29.7,17.3S213.6,446.4,227.3,458.4z"/>
	<g>
		<circle class="st4" cx="295.7" cy="302.3" r="73.8"/>
		<path class="st5" d="M269.8,235.2c0,0,46.3,16.7,46.3,70.7s-46.3,66.7-46.3,66.7s-18.3-10.3-25.3-17.3s-18.8-22.7-21.2-40.7
			s-0.8-27.8,6.5-43.7C237.2,255,254.2,239.2,269.8,235.2z"/>
		<path class="st6" d="M258.5,239.6c0,0,5.5,3.8,8.6,8.6s10.6,13.8,14.4,13.4s5.8-7.2,7.5-10.6s4.2-6.8,4.5-9.6s0.4-12.1,0.4-12.1"
			/>
		<path class="st6" d="M245.5,250c0,0,2.4,7.2,6.9,9s13.8,4.1,14.5,9.2s-2.4,8.4-6.4,12.1s-16.6,15.5-17.2,19.2s-2,12.9,3.5,13.4
			s22.5-1.1,23.9,0.6s4.8,11.1,4.4,13.2s-13.1,7.6-15.1,11.6s-7.9,16.9-7.6,22.4"/>
		<path class="st6" d="M223,297.5c0,0,17.5,12.4,21.1,23.1s1.1,35.1,1.1,35.1"/>
		<line class="st6" x1="253.7" y1="303.1" x2="259.4" y2="303"/>
		<line class="st6" x1="283.7" y1="268.9" x2="292.2" y2="269"/>
		<line class="st6" x1="265.3" y1="282.3" x2="267" y2="282.4"/>
		<path class="st6" d="M321.7,233.7c0,0-7.8,5.5-11.2,6.5s-5.8,8.5-1,10s12.8-1,15.5,0.8s13.2,9.5,13.5,16.5s-5,12.8-8.5,16.5
			s-14.2,13.8-12,19.5s12.8,4.8,18.8,5.2s7,4.2,8.8,14.2s6.5,19,12.2,21"/>
		<path class="st7" d="M266,369.2c0,0,14.8-8.2,34.8-8.8s37.5,2.8,37.5,2.8"/>
		<line class="st7" x1="315.2" y1="352.5" x2="325.5" y2="352.5"/>
		<line class="st7" x1="288.5" y1="366.6" x2="297" y2="366.6"/>
		<circle class="st8" cx="296.3" cy="302.7" r="73.8"/>
	</g>
	<g class="st0">
		<circle class="st9" cx="233.5" cy="430.2" r="41.7"/>
		<path class="st10" d="M224.7,391.7c0,0,23.2,9,26.2,34.2s-15.5,40-24.5,43c7.5,3.2,43.8-0.2,47-34
			C276.2,398.7,242.2,387,224.7,391.7z"/>
	</g>
	<circle class="st11" cx="48" cy="299.7" r="18.2"/>
	<circle class="st12" cx="546.4" cy="299.9" r="17"/>
	<path class="st11" d="M120,461.2c-10.3,0-18.7,8.4-18.7,18.7c0,10.3,8.4,18.7,18.7,18.7s18.7-8.4,18.7-18.7
		C138.7,469.5,130.3,461.2,120,461.2z M104,484.8c-1.2-4.1-0.8-8.5,1.2-12.3c2.1-4,6.1-8.7,13.7-8.7c0,0-6,8.4-5.3,17.7
		c0.7,9.2,5.7,15,5.7,15S107.3,495.6,104,484.8z"/>
	<path class="st11" d="M103.8,125c0,10.3,8.4,18.7,18.7,18.7s18.7-8.4,18.7-18.7c0-10.3-8.4-18.7-18.7-18.7S103.8,114.6,103.8,125z
		 M123.3,141.6c0,0,5-5.8,5.7-15c0.7-9.2-5.3-17.7-5.3-17.7c7.5,0,11.6,4.7,13.7,8.7c1.9,3.8,2.4,8.2,1.2,12.3
		C135.2,140.7,123.3,141.6,123.3,141.6z"/>
	<path class="st11" d="M297.4,534.5c-10.1,0-18.3,8.2-18.3,18.3s8.2,18.3,18.3,18.3s18.3-8.2,18.3-18.3S307.5,534.5,297.4,534.5z
		 M297.6,569.6c0,0-11.5-0.8-15.4-9.9c-3.9-9.2,1.9-22.5,15.4-23.2V569.6z"/>
	<path class="st11" d="M278.6,55.4c0,10.1,8.2,18.3,18.3,18.3s18.3-8.2,18.3-18.3s-8.2-18.3-18.3-18.3S278.6,45.3,278.6,55.4z
		 M296.8,39.1c13.5,0.7,19.3,14,15.4,23.2c-3.9,9.2-15.4,9.9-15.4,9.9V39.1z"/>
	<circle class="st12" cx="474.8" cy="477.2" r="17.5"/>
	<path class="st11" d="M477.1,459.8c0,0,6.7,3.9,7.3,16.4c0.4,9.7-3.6,16.4-6.4,17.4c1.2,0.9,9.4-2.8,11.8-7.4s3.8-10,2.4-14
		S485.7,459.4,477.1,459.8z"/>
	<circle class="st12" cx="472.3" cy="127.4" r="17.5"/>
	<path class="st11" d="M470,110c0,0-6.7,3.9-7.3,16.4c-0.4,9.7,3.6,16.4,6.4,17.4c-1.2,0.9-9.4-2.8-11.8-7.4s-3.8-10-2.4-14
		S461.4,109.6,470,110z"/>
	<path class="st13" d="M167.2,446.8c0,0-16.5-10-23.8-16.8s-13.2-15.2-16.7-24.2c-3.5-9-5.3-25.8-12-44.3
		C108,343,100,328.7,98,316.2s0.5-28.7,4.7-40.3c4.2-11.7,14-33.3,16.7-46.3s6.3-33.2,18.5-45.8c12.2-12.7,27.5-22.5,40-29.2
		s31-26.3,42.2-33.2c11.2-6.8,20.5-9.3,38-9.8s26.2,3,49.2,1.7c23-1.3,47.7-1.5,60.3,6s33.2,27.8,43.2,34.2
		c10,6.3,33,17.8,41.8,29.5c8.8,11.7,13.8,22.5,18.2,40c4.3,17.5,5.7,24.7,12.5,40.3c6.8,15.7,13.7,36.5,9.7,52.7
		c-4,16.2-14.7,35.7-21.3,62c-6.7,26.3-9.3,39.5-22,49.8c-12.7,10.3-35.7,23.5-52.8,37.5c-17.2,14-32.5,29-48.8,29
		c-16.3,0-47-0.3-66.3-0.2s-42.2,4.7-58.3-6.3S178,453.5,167.2,446.8z"/>
	<path class="st14" d="M122.3,442.3c0,0-6.2-4.8-11-14c-4.8-9.2-12.7-34.8-16.3-50c-3.7-15.2-15-40.3-18.2-51.5
		c-3.2-11.2-5.2-30.3-0.7-44.3s16.8-42.2,18.7-53.2s10.8-45.3,24.3-60.5c13.5-15.2,43.3-32.5,54.8-41.5s37.8-33.8,60.7-38.5
		c22.8-4.7,58.3-0.8,78-1.2c19.7-0.3,46.7-1,58.3,4.8s24.3,14.5,45.5,32s49.2,30.7,60,44.8c10.8,14.2,18,40.2,22.2,56.7
		c4.2,16.5,20.3,49.8,22.3,69.2c2,19.3-8,44.7-16.8,68c-8.8,23.3-15.2,59.8-25.5,71.8c-10.3,12-28,26-42.2,34.5s-38,29-50.5,37.7
		S360,521,329.7,520c-30.3-1-39.5-1.8-65-1s-41.7-1.8-54-10.2c-12.3-8.3-33.3-26.3-52.7-39.3S122.3,442.3,122.3,442.3z"/>
</g>
</svg>
