<svg width="1441" height="816" viewBox="0 0 1441 816" fill="none" xmlns="http://www.w3.org/2000/svg">
<path d="M1284.75 0C1284.75 0 1252.09 213.667 995.257 189C704.257 161.048 508.25 232.467 435.5 294.5C362.75 356.533 359.953 426.767 204.5 410.5C116.157 401.26 0.0449219 316.463 -0.00012207 316.2V716.475C-0.00012207 716.475 189.75 604.995 292.882 697.725C319.132 721.35 338.865 753.84 347.295 773.227C352.74 785.886 361.768 796.677 373.266 804.273C384.764 811.868 398.232 815.937 412.012 815.977H413.22C441.592 815.977 467.077 798.818 478.237 772.545C497.325 727.605 545.04 683.775 662.257 683.775C790.342 683.775 912.5 746.643 1052 622C1191.5 497.357 1440.01 552.09 1440.01 552.09V0.105L1284.75 0Z" fill="#1A6AFF"/>
</svg>
