<svg width="1441" height="835" viewBox="0 0 1441 835" fill="none" xmlns="http://www.w3.org/2000/svg">
<path d="M1284.75 0C1284.75 0 1214.59 265.013 957.75 240.345C666.75 212.393 615 309.765 542.25 371.798C469.5 433.83 327.202 493.065 171.75 476.797C83.4073 467.557 0.0449219 316.463 -0.00012207 316.2V716.475C-0.00012207 716.475 117.868 623.745 221 716.475C247.25 740.1 266.982 772.59 275.412 791.977C280.858 804.636 289.885 815.427 301.383 823.023C312.882 830.618 326.349 834.687 340.13 834.727H341.338C369.71 834.727 478.237 772.545 478.237 772.545C478.237 772.545 587.283 716.475 704.5 716.475C832.585 716.475 956.5 767.643 1096 643C1235.5 518.357 1440.01 552.09 1440.01 552.09V0.105L1284.75 0Z" fill="#1A6AFF"/>
</svg>
