<svg width="1441" height="835" viewBox="0 0 1441 835" fill="none" xmlns="http://www.w3.org/2000/svg">
<path d="M1284.75 0C1284.75 0 1214.59 265.013 957.75 240.345C666.75 212.393 474.75 277.967 402 340C329.25 402.033 324.953 465.767 169.5 449.5C81.1575 440.26 0.0454102 316.463 0.000366211 316.2V716.475C0.000366211 716.475 117.868 623.745 221 716.475C247.25 740.1 266.983 772.59 275.413 791.977C280.858 804.636 289.886 815.427 301.384 823.023C312.882 830.618 326.35 834.687 340.13 834.727H341.338C369.711 834.727 478.238 772.545 478.238 772.545C478.238 772.545 587.283 716.475 704.5 716.475C832.585 716.475 956.5 767.643 1096 643C1235.5 518.357 1440.01 552.09 1440.01 552.09V0.105L1284.75 0Z" fill="#1A6AFF"/>
</svg>
