<svg width="1441" height="816" viewBox="0 0 1441 816" fill="none" xmlns="http://www.w3.org/2000/svg">
<path d="M1284.75 0C1284.75 0 1214.59 265.013 957.75 240.345C666.75 212.393 615 309.765 542.25 371.798C469.5 433.83 327.202 493.065 171.75 476.797C83.4073 467.557 0.0449219 316.463 -0.00012207 316.2V716.475C-0.00012207 716.475 189.75 604.995 292.882 697.725C319.132 721.35 338.865 753.84 347.295 773.227C352.74 785.886 361.768 796.677 373.266 804.273C384.764 811.868 398.232 815.937 412.012 815.977H413.22C441.592 815.977 467.077 798.818 478.237 772.545C497.325 727.605 545.04 683.775 662.257 683.775C790.342 683.775 855.757 687.668 995.257 563.025C1134.76 438.383 1440.01 552.09 1440.01 552.09V0.105L1284.75 0Z" fill="#1A6AFF"/>
</svg>
