<svg width="116" height="30" viewBox="0 0 116 30" fill="none" xmlns="http://www.w3.org/2000/svg">
<path d="M47.6985 9.49653C47.6399 9.34568 47.536 9.21675 47.4012 9.1275C47.2664 9.03824 47.1073 8.99305 46.9458 8.99815C46.7848 8.99185 46.6258 9.03629 46.4912 9.12522C46.3567 9.21415 46.2533 9.34309 46.1957 9.49392L41.8983 19.9312C41.8499 20.0376 41.8259 20.1535 41.828 20.2704C41.8268 20.3775 41.8472 20.4838 41.8879 20.5829C41.9286 20.682 41.9889 20.7718 42.065 20.8471C42.2223 20.9964 42.4318 21.0779 42.6484 21.0741C42.8115 21.078 42.972 21.0326 43.1088 20.9436C43.2457 20.8547 43.3526 20.7265 43.4154 20.5757L44.2762 18.4295L49.6858 18.4113L50.557 20.5652C50.6225 20.709 50.7285 20.8304 50.862 20.9146C50.9955 20.9987 51.1507 21.0419 51.3084 21.0388C51.5261 21.041 51.736 20.9577 51.8931 20.8066C51.9685 20.7308 52.028 20.6405 52.068 20.5413C52.1081 20.442 52.1278 20.3357 52.1262 20.2286C52.1275 20.1115 52.1026 19.9956 52.0532 19.8894L47.6985 9.49653ZM48.9825 16.7765L44.9547 16.7896L46.9523 11.9388L48.9825 16.7765Z" fill="#E8ECF3"/>
<path d="M62.4987 9.12089C62.3601 9.04073 62.2029 8.99854 62.0429 8.99854C61.8829 8.99854 61.7257 9.04073 61.5871 9.12089C61.4683 9.1915 61.3712 9.29375 61.3069 9.41628C61.2425 9.53881 61.2133 9.67681 61.2225 9.81497L61.2446 16.534C61.2502 16.9308 61.1761 17.3247 61.0266 17.6923C60.8772 18.0599 60.6555 18.3936 60.3747 18.6736C60.1078 18.9615 59.7834 19.19 59.4227 19.3444C59.062 19.4988 58.673 19.5756 58.2807 19.5699H58.269C57.8776 19.5754 57.4893 19.5001 57.1282 19.3488C56.7671 19.1976 56.4408 18.9735 56.1698 18.6906C55.8871 18.4125 55.6631 18.0805 55.511 17.714C55.3589 17.3476 55.2818 16.9543 55.2843 16.5574L55.2608 9.84628C55.2705 9.7069 55.2411 9.56758 55.176 9.44403C55.1109 9.32048 55.0126 9.2176 54.8923 9.14698C54.7537 9.06683 54.5965 9.02463 54.4365 9.02463C54.2765 9.02463 54.1193 9.06683 53.9807 9.14698C53.8627 9.21686 53.7662 9.31803 53.7018 9.43934C53.6375 9.56066 53.6078 9.69741 53.6161 9.83454L53.6395 16.5601C53.6444 17.7875 54.1341 18.963 55.0016 19.8297C55.8691 20.6964 57.0439 21.1837 58.269 21.1851H58.2873C59.5129 21.1764 60.6853 20.6816 61.5476 19.8089C62.4099 18.9362 62.8919 17.7567 62.8881 16.5287L62.8672 9.81888C62.877 9.67967 62.8476 9.54052 62.7825 9.41716C62.7173 9.2938 62.619 9.19118 62.4987 9.12089Z" fill="#E8ECF3"/>
<path d="M78.515 8.97607C78.3356 8.97117 78.1595 9.02546 78.0139 9.13059C77.8682 9.23572 77.7611 9.38586 77.7089 9.55794L75.3584 17.3624L72.9518 9.5749C72.9055 9.40461 72.8032 9.25499 72.6613 9.15031C72.5195 9.04563 72.3465 8.99205 72.1705 8.99825C71.9879 8.97999 71.8049 9.02919 71.656 9.13658C71.5071 9.24398 71.4025 9.40217 71.3618 9.58143L68.9956 17.3924L66.5656 9.59708C66.5186 9.42315 66.4131 9.27079 66.267 9.16573C66.1208 9.06068 65.943 9.00935 65.7634 9.02042C65.6446 9.02111 65.5274 9.04896 65.4209 9.10187C65.3144 9.15477 65.2213 9.23133 65.1488 9.32572C65.0662 9.43078 65.0084 9.55314 64.9795 9.6837C64.9506 9.81425 64.9515 9.94964 64.9821 10.0798L68.1947 20.4845C68.2413 20.6563 68.3451 20.8071 68.4888 20.912C68.6325 21.0168 68.8076 21.0694 68.9852 21.0611C69.1657 21.0701 69.3438 21.0172 69.4904 20.9112C69.6369 20.8052 69.743 20.6524 69.7913 20.4779L72.1575 12.6004L74.5783 20.4636C74.622 20.6353 74.7237 20.7866 74.8662 20.8918C75.0086 20.9969 75.183 21.0494 75.3597 21.0402C75.5401 21.0486 75.718 20.9953 75.8642 20.8891C76.0104 20.7829 76.1163 20.6301 76.1645 20.4558L79.3003 10.0498L79.3068 10.025C79.3368 9.89351 79.337 9.75695 79.3075 9.62534C79.278 9.49373 79.2194 9.3704 79.1362 9.2644C79.0626 9.1708 78.9679 9.09592 78.86 9.04582C78.7521 8.99572 78.6339 8.97182 78.515 8.97607Z" fill="#E8ECF3"/>
<path d="M87.0655 8.86378C86.2571 8.86428 85.4569 9.02485 84.7107 9.33626C83.9645 9.64766 83.2871 10.1038 82.7175 10.6783C82.1479 11.2529 81.6972 11.9346 81.3914 12.6843C81.0857 13.4339 80.9308 14.2367 80.9358 15.0466C80.9283 15.8554 81.0841 16.6575 81.3938 17.4045C81.7035 18.1516 82.1608 18.8282 82.7381 19.3937C83.3033 19.9714 83.9796 20.4281 84.7261 20.7362C85.4726 21.0444 86.2738 21.1975 87.0811 21.1863H87.1058C88.737 21.1797 90.2989 20.5252 91.449 19.3664C92.5991 18.2076 93.2435 16.639 93.2407 15.0048C93.2328 13.3713 92.5787 11.8076 91.4219 10.6565C90.2651 9.50532 88.6999 8.86065 87.0694 8.86378H87.0655ZM87.085 19.5724C86.4933 19.5709 85.9078 19.4522 85.362 19.2231C84.8163 18.9941 84.3212 18.6592 83.9051 18.2377C83.489 17.8163 83.1602 17.3165 82.9376 16.7673C82.7149 16.2181 82.6029 15.6302 82.6079 15.0374C82.5951 14.4412 82.704 13.8486 82.9279 13.2961C83.1518 12.7435 83.4861 12.2426 83.9101 11.8241C84.315 11.3908 84.8058 11.0471 85.3509 10.8148C85.896 10.5825 86.4835 10.4668 87.0759 10.475H87.0941C87.6829 10.4664 88.2671 10.5805 88.8096 10.8101C89.3521 11.0396 89.8411 11.3796 90.2455 11.8084C90.671 12.2242 91.0074 12.7226 91.234 13.2731C91.4606 13.8236 91.5727 14.4146 91.5634 15.01C91.5725 15.6042 91.464 16.1943 91.2442 16.7462C91.0243 17.2981 90.6974 17.8009 90.2825 18.2255C89.8675 18.6501 89.3726 18.9881 88.8265 19.22C88.2804 19.4518 87.6938 19.573 87.1006 19.5763L87.085 19.5724Z" fill="#E8ECF3"/>
<path d="M104.57 12.9813C104.567 11.9563 104.159 10.9743 103.435 10.2498C102.711 9.52523 101.731 9.11701 100.708 9.11426H100.692L96.3659 9.12991C96.2579 9.12974 96.151 9.15102 96.0513 9.19255C95.9515 9.23407 95.861 9.29499 95.785 9.3718C95.7089 9.44861 95.6488 9.53978 95.6082 9.64001C95.5675 9.74025 95.5471 9.84757 95.5481 9.95576L95.5833 20.2313C95.5738 20.3706 95.6032 20.5099 95.6683 20.6334C95.7334 20.7569 95.8316 20.8598 95.9518 20.9306C96.0904 21.0107 96.2476 21.0529 96.4076 21.0529C96.5676 21.0529 96.7248 21.0107 96.8634 20.9306C96.9817 20.8612 97.0784 20.7604 97.1428 20.6392C97.2071 20.518 97.2367 20.3813 97.228 20.2443L97.2163 16.8757L100.712 16.8639L102.548 20.517C102.604 20.6777 102.71 20.8161 102.851 20.9119C102.992 21.0077 103.159 21.0558 103.329 21.0493C103.437 21.0495 103.544 21.0282 103.644 20.9866C103.743 20.9451 103.834 20.8842 103.91 20.8074C103.986 20.7306 104.046 20.6394 104.087 20.5392C104.127 20.4389 104.148 20.3316 104.147 20.2234C104.148 20.0676 104.103 19.9149 104.017 19.7851L102.376 16.4973C103.038 16.1816 103.596 15.6829 103.985 15.06C104.374 14.4371 104.577 13.7159 104.57 12.9813ZM102.249 11.4078C102.659 11.8312 102.889 12.3973 102.891 12.987C102.893 13.5767 102.667 14.1443 102.26 14.5703C102.061 14.779 101.821 14.9441 101.554 15.055C101.288 15.1659 101.002 15.2204 100.714 15.2148L97.1981 15.2266L97.1825 10.7725L100.699 10.7594C100.987 10.756 101.274 10.8118 101.541 10.9233C101.807 11.0348 102.049 11.1997 102.249 11.4078Z" fill="#E8ECF3"/>
<path d="M108.224 9.14433C108.086 9.06417 107.929 9.02197 107.769 9.02197C107.609 9.02197 107.451 9.06417 107.313 9.14433C107.194 9.2149 107.098 9.31699 107.033 9.43928C106.969 9.56157 106.94 9.69927 106.949 9.8371L106.985 20.2261C106.975 20.3656 107.005 20.5049 107.07 20.6284C107.136 20.7519 107.234 20.8547 107.354 20.9254C107.493 21.0055 107.65 21.0477 107.81 21.0477C107.97 21.0477 108.127 21.0055 108.266 20.9254C108.384 20.8561 108.481 20.7552 108.545 20.634C108.61 20.5128 108.639 20.3761 108.631 20.2391L108.594 9.84362C108.604 9.70409 108.574 9.56463 108.509 9.44103C108.444 9.31744 108.345 9.21466 108.224 9.14433Z" fill="#E8ECF3"/>
<path d="M115.732 19.6286L111.756 15.027L115.721 10.402C115.869 10.2453 115.952 10.0378 115.952 9.8221C115.952 9.60641 115.869 9.39891 115.721 9.24218L115.689 9.20956C115.533 9.06373 115.326 8.98426 115.113 8.98791C114.9 8.99156 114.696 9.07805 114.545 9.22913L110.01 14.4295C109.927 14.503 109.86 14.5933 109.814 14.6945C109.769 14.7958 109.745 14.9055 109.745 15.0166C109.745 15.1277 109.769 15.2374 109.814 15.3387C109.86 15.4399 109.927 15.5302 110.01 15.6037L114.581 20.7975L114.597 20.8132C114.756 20.9539 114.959 21.0326 115.17 21.035C115.381 21.0353 115.584 20.9518 115.733 20.8028C115.816 20.7293 115.883 20.639 115.928 20.5377C115.974 20.4365 115.998 20.3267 115.998 20.2157C115.998 20.1046 115.974 19.9948 115.928 19.8936C115.883 19.7924 115.816 19.702 115.733 19.6286H115.732Z" fill="#E8ECF3"/>
<path d="M39.4501 19.5816L38.6922 18.5796L31.9778 9.42743C31.9017 9.3278 31.8029 9.24794 31.6896 9.19459C31.5762 9.14123 31.4518 9.11594 31.3267 9.12084C31.2211 9.12013 31.1164 9.14055 31.0189 9.1809C30.9213 9.22125 30.8327 9.28072 30.7583 9.35582C30.684 9.43092 30.6253 9.52013 30.5859 9.61824C30.5464 9.71634 30.5268 9.82135 30.5284 9.92712L30.5636 20.0721C30.5541 20.2079 30.5827 20.3437 30.6462 20.4641C30.7097 20.5844 30.8056 20.6846 30.923 20.7532C31.0579 20.8309 31.2108 20.8718 31.3664 20.8718C31.522 20.8718 31.6749 20.8309 31.8098 20.7532C31.9252 20.6853 32.0196 20.5867 32.0823 20.4683C32.1451 20.3499 32.1738 20.2164 32.1653 20.0826L32.1393 12.3525L38.1296 20.5144C38.1747 20.5779 38.2281 20.6349 38.2885 20.684C38.3648 20.7544 38.4554 20.8074 38.5541 20.8394C38.6528 20.8713 38.7572 20.8815 38.8602 20.8693C38.9896 20.854 39.1138 20.8094 39.2235 20.7388L39.2482 20.7232L39.2821 20.6997C39.4083 20.6062 39.5065 20.4799 39.566 20.3344C39.6184 20.2105 39.6353 20.0744 39.6148 19.9415C39.5943 19.8085 39.5373 19.6839 39.4501 19.5816Z" fill="#E8ECF3"/>
<path d="M38.799 9.12341C38.5803 9.12341 38.3705 9.21038 38.2157 9.36522C38.0609 9.52006 37.9737 9.73011 37.9734 9.94926V15.2005C37.9734 15.4199 38.0604 15.6303 38.2152 15.7854C38.37 15.9405 38.58 16.0277 38.799 16.0277C39.018 16.0277 39.228 15.9405 39.3828 15.7854C39.5377 15.6303 39.6246 15.4199 39.6246 15.2005V9.94926C39.6243 9.73011 39.5372 9.52006 39.3824 9.36522C39.2276 9.21038 39.0178 9.12341 38.799 9.12341Z" fill="#E8ECF3"/>
<path d="M19.82 0.852905C19.014 0.853596 18.2412 1.1746 17.6711 1.74547C17.1011 2.31635 16.7803 3.09047 16.7793 3.89798L16.8705 26.3303C16.8882 27.1271 17.217 27.8853 17.7863 28.4421C18.3556 28.9989 19.1201 29.31 19.9156 29.3086C20.7112 29.3072 21.4746 28.9935 22.042 28.4348C22.6094 27.876 22.9356 27.1168 22.9506 26.3198L22.8595 3.88885C22.8567 3.08293 22.5353 2.31095 21.9657 1.74194C21.396 1.17292 20.6245 0.853246 19.82 0.852905Z" fill="#E8ECF3"/>
<path d="M3.03944 0.769897C2.2332 0.770934 1.46031 1.09244 0.890453 1.66385C0.320597 2.23525 0.000344326 3.00984 0 3.81758L0.0911571 26.2473C0.108927 27.0441 0.437727 27.8023 1.00702 28.3591C1.57632 28.9159 2.34076 29.227 3.13635 29.2256C3.93194 29.2242 4.69531 28.9105 5.2627 28.3518C5.83009 27.793 6.15629 27.0338 6.17134 26.2368L6.08018 3.80584C6.07708 2.9998 5.75539 2.22782 5.18551 1.65885C4.61564 1.08987 3.84399 0.770237 3.03944 0.769897Z" fill="#E8ECF3"/>
<path opacity="0.68" d="M1.12529 1.36518C0.500389 1.87479 0.102714 2.61188 0.0194687 3.41481C-0.0637761 4.21774 0.174205 5.02098 0.681224 5.64838L17.5609 28.2464C18.0804 28.8387 18.8089 29.2062 19.5933 29.2715C20.3776 29.3369 21.1567 29.095 21.7667 28.5967C22.3767 28.0985 22.7701 27.3826 22.8642 26.5998C22.9582 25.8169 22.7457 25.028 22.2711 24.3989L5.39405 1.80094C4.88483 1.17726 4.14964 0.781208 3.34953 0.699532C2.54941 0.617856 1.7496 0.857217 1.12529 1.36518Z" fill="#E8ECF3"/>
</svg>
