<?xml version="1.0" encoding="utf-8"?>
<!-- Generator: Adobe Illustrator 22.0.1, SVG Export Plug-In . SVG Version: 6.00 Build 0)  -->
<svg version="1.1" id="Слой_1" xmlns="http://www.w3.org/2000/svg" xmlns:xlink="http://www.w3.org/1999/xlink" x="0px" y="0px"
	 viewBox="0 0 87.3 85.7" style="enable-background:new 0 0 87.3 85.7;" xml:space="preserve">
<style type="text/css">
	.st0{display:none;}
	.st1{display:none;fill:none;stroke:#E8ECF3;stroke-width:2.5;stroke-miterlimit:10;}
	.st2{display:none;fill:none;stroke:#E8ECF3;stroke-width:3;stroke-miterlimit:10;}
	.st3{display:none;fill:none;stroke:#E8ECF3;stroke-width:2;stroke-miterlimit:10;}
	.st4{display:inline;fill:#0376B4;}
	.st5{display:inline;fill:#AFD7BF;}
	.st6{display:inline;fill:none;stroke:#6FC392;stroke-width:3;stroke-miterlimit:10;}
	.st7{display:inline;fill:none;stroke:#FFFFFF;stroke-width:3;stroke-miterlimit:10;}
	.st8{display:inline;fill:none;stroke:#000000;stroke-width:3;}
	.st9{fill:#1A6AFF;}
	.st10{fill:#FFFFFF;}
	.st11{display:none;fill:#1A6AFF;}
	.st12{display:none;fill:none;stroke:#1A6AFF;stroke-width:3;stroke-miterlimit:10;}
	.st13{display:none;fill:none;stroke:#E8ECF3;stroke-width:1.5;stroke-miterlimit:10;}
	.st14{display:none;fill:none;stroke:#E8ECF3;stroke-miterlimit:10;}
</style>
<g id="Слой_1_1_" class="st0">
	
		<image style="display:inline;overflow:visible;enable-background:new    ;" width="536" height="537" xlink:href="tides-www/static/moon.png"  transform="matrix(1 0 0 1 -158.8392 -351.5026)">
	</image>
</g>
<g id="Слой_2_1_">
	<path class="st1" d="M77.7,61.3c0,0,19.8-2.3,31.2-2.7c11.3-0.3,26.7,4.8,39.7,2.3s24.3-14.3,33.7-23.7c9.3-9.3,21.3-14,30.2-20
		c8.8-6,17.8-12.5,20.3-19.7s4.7-24.2,8-37.2s12.8-23.2,14.7-42.7c1.8-19.5-13.7-36.3-15.8-47.7c-2.2-11.3-5.3-32.3-11.8-42.7
		s-30.3-17.8-38.8-26s-24.7-23.7-35.3-28c-10.7-4.3-32.7,0.3-46.5,1.3s-26-3.3-39.3-2.8s-23.5,9.2-28.8,15.8
		c-5.3,6.7-22,19.8-32,23.8s-19,10.5-25.2,20.2s-5.3,22.5-8.7,35.7C-30-119.6-41.9-98.6-43.5-90c-1.7,8.7,1.5,22.3,7,32.3
		s10.7,24,12.2,37.3s6.5,23.5,13,29.7S11.4,24,11.4,24s22.2,13.2,32.8,22.8C54.5,56.8,62.9,62.2,77.7,61.3z"/>
	<path class="st2" d="M83.4,36.3c6.6-0.2,22.7-2.2,32.2-1s19.5,4,29.8,0.7s17.5-13.7,25.3-21.3C178.5,7,192,3.2,201.4-2.6
		c9.3-5.8,11.3-14.7,13.5-29.7s4.7-18.2,9.2-27s8.8-21.2,7.7-28.5c-1.2-7.3-15.3-29.7-16.2-39c-0.8-9.3-3.7-25.5-9.3-32.3
		c-5.7-6.8-23.7-13-30.2-18s-21.2-21.3-29.8-25.3s-24.5,0.7-36.8,2S84-204.6,71-203.6s-27.8,23.8-39.2,28.8
		C20.5-169.8,4.3-161.3,1-153s-2.2,21.8-5.5,32c-3.3,10.2-14.8,22.5-15.2,36.8C-20-69.9-12-62.9-7.5-53.2S-2.2-27.7-1.2-21
		S4-8.3,8.1-4.7C12.3-1,30.6,8.8,30.6,8.8s8,4.3,19.3,15.3C61.2,35.2,77.2,36.5,83.4,36.3z"/>
	<path class="st3" d="M38,71.4c9.2,8,20.8,12.6,33,12.7c0.2,0,0.3,0,0.5,0c11.5,0,38.2-2,55.8-0.7c17.7,1.3,31.2,1.7,41.7-5.3
		s29.7-24.7,38.3-30.2c8.7-5.5,28.2-15.7,37.3-26.8c9.2-11.2,13.3-29.3,16.5-46.2s12.5-29.7,16.2-40.2s5-26.8-2-40.3
		s-13.8-34.7-16.5-49.7s-10-31.2-16.3-36.5s-35.8-22.8-44.8-30.7c-9-7.8-29.3-26.2-42-28.5s-38.5,3.3-56.5,2.3S59.9-254,45.7-247
		s-29.8,25.5-40.5,32.5s-28.7,15.8-36.8,24.8c-8.2,9-12.8,24.7-13.7,33.5c-0.8,8.8-10,35.5-16.8,48.2s-6.7,25.8-5.3,34.5
		s9.2,22.8,14.7,37.5S-43.9-3.2-42,4.8c1.8,8,11,19.5,18.2,25.3S5.9,47.4,5.9,47.4S24.3,59.4,38,71.4z"/>
	<g class="st0">
		<circle class="st4" cx="106.4" cy="-84.7" r="73.8"/>
		<path class="st5" d="M80.5-151.8c0,0,46.3,16.7,46.3,70.7S80.5-14.4,80.5-14.4S62.2-24.7,55.2-31.7S36.4-54.4,34-72.4
			s-0.8-27.8,6.5-43.7C47.9-132,64.9-147.8,80.5-151.8z"/>
		<path class="st6" d="M69.2-147.4c0,0,5.5,3.8,8.6,8.6s10.6,13.8,14.4,13.4s5.8-7.2,7.5-10.6s4.2-6.8,4.5-9.6s0.4-12.1,0.4-12.1"/>
		<path class="st6" d="M56.2-137c0,0,2.4,7.2,6.9,9s13.8,4.1,14.5,9.2s-2.4,8.4-6.4,12.1S54.6-91.2,54-87.5s-2,12.9,3.5,13.4
			s22.5-1.1,23.9,0.6s4.8,11.1,4.4,13.2s-13.1,7.6-15.1,11.6s-7.9,16.9-7.6,22.4"/>
		<path class="st6" d="M33.7-89.5c0,0,17.5,12.4,21.1,23.1s1.1,35.1,1.1,35.1"/>
		<line class="st6" x1="64.4" y1="-83.9" x2="70.1" y2="-84"/>
		<line class="st6" x1="94.4" y1="-118.1" x2="102.9" y2="-118"/>
		<line class="st6" x1="76" y1="-104.7" x2="77.7" y2="-104.6"/>
		<path class="st6" d="M132.4-153.3c0,0-7.8,5.5-11.2,6.5s-5.8,8.5-1,10s12.8-1,15.5,0.8s13.2,9.5,13.5,16.5s-5,12.8-8.5,16.5
			s-14.2,13.8-12,19.5c2.2,5.7,12.8,4.8,18.8,5.2s7,4.2,8.8,14.2s6.5,19,12.2,21"/>
		<path class="st7" d="M76.7-17.8c0,0,14.8-8.2,34.8-8.8s37.5,2.8,37.5,2.8"/>
		<line class="st7" x1="125.9" y1="-34.5" x2="136.2" y2="-34.5"/>
		<line class="st7" x1="99.2" y1="-20.4" x2="107.7" y2="-20.4"/>
		<circle class="st8" cx="107" cy="-84.3" r="73.8"/>
	</g>
	<g>
		<circle class="st9" cx="44.2" cy="43.2" r="41.7"/>
		<path class="st10" d="M35.4,4.7c0,0,23.2,9,26.2,34.2c3,25.2-15.5,40-24.5,43c7.5,3.2,43.8-0.2,47-34C86.9,11.7,52.9,0,35.4,4.7z"
			/>
	</g>
	
		<ellipse transform="matrix(3.327795e-02 -0.9994 0.9994 3.327795e-02 -49.3784 -225.6499)" class="st11" cx="-141.3" cy="-87.3" rx="18.2" ry="18.2"/>
	<circle class="st12" cx="357.1" cy="-87.1" r="17"/>
	<path class="st11" d="M-69.3,74.2c-10.3,0-18.7,8.4-18.7,18.7c0,10.3,8.4,18.7,18.7,18.7s18.7-8.4,18.7-18.7
		C-50.6,82.5-59,74.2-69.3,74.2z M-85.3,97.8c-1.2-4.1-0.8-8.5,1.2-12.3c2.1-4,6.1-8.7,13.7-8.7c0,0-6,8.4-5.3,17.7
		c0.7,9.2,5.7,15,5.7,15S-82,108.6-85.3,97.8z"/>
	<path class="st11" d="M-85.5-262c0,10.3,8.4,18.7,18.7,18.7s18.7-8.4,18.7-18.7c0-10.3-8.4-18.7-18.7-18.7S-85.5-272.4-85.5-262z
		 M-66-245.4c0,0,5-5.8,5.7-15c0.7-9.2-5.3-17.7-5.3-17.7c7.5,0,11.6,4.7,13.7,8.7c1.9,3.8,2.4,8.2,1.2,12.3
		C-54.1-246.3-66-245.4-66-245.4z"/>
	<path class="st11" d="M108.1,147.5c-10.1,0-18.3,8.2-18.3,18.3s8.2,18.3,18.3,18.3s18.3-8.2,18.3-18.3S118.2,147.5,108.1,147.5z
		 M108.3,182.6c0,0-11.5-0.8-15.4-9.9c-3.9-9.2,1.9-22.5,15.4-23.2V182.6z"/>
	<path class="st11" d="M89.3-331.6c0,10.1,8.2,18.3,18.3,18.3s18.3-8.2,18.3-18.3s-8.2-18.3-18.3-18.3S89.3-341.7,89.3-331.6z
		 M107.5-347.9c13.5,0.7,19.3,14,15.4,23.2c-3.9,9.2-15.4,9.9-15.4,9.9V-347.9z"/>
	<circle class="st12" cx="285.5" cy="90.2" r="17.5"/>
	<path class="st11" d="M287.8,72.8c0,0,6.7,3.9,7.3,16.4c0.4,9.7-3.6,16.4-6.4,17.4c1.2,0.9,9.4-2.8,11.8-7.4s3.8-10,2.4-14
		S296.4,72.4,287.8,72.8z"/>
	<circle class="st12" cx="283" cy="-259.6" r="17.5"/>
	<path class="st11" d="M280.7-277c0,0-6.7,3.9-7.3,16.4c-0.4,9.7,3.6,16.4,6.4,17.4c-1.2,0.9-9.4-2.8-11.8-7.4s-3.8-10-2.4-14
		S272.1-277.4,280.7-277z"/>
	<path class="st13" d="M-22.1,59.8c0,0-16.5-10-23.8-16.8s-13.2-15.2-16.7-24.2c-3.5-9-5.3-25.8-12-44.3s-14.7-32.8-16.7-45.3
		s0.5-28.7,4.7-40.3c4.2-11.7,14-33.3,16.7-46.3s6.3-33.2,18.5-45.8c12.2-12.7,27.5-22.5,40-29.2s31-26.3,42.2-33.2
		c11.2-6.8,20.5-9.3,38-9.8c17.5-0.5,26.2,3,49.2,1.7s47.7-1.5,60.3,6s33.2,27.8,43.2,34.2c10,6.3,33,17.8,41.8,29.5
		c8.8,11.7,13.8,22.5,18.2,40c4.3,17.5,5.7,24.7,12.5,40.3c6.8,15.7,13.7,36.5,9.7,52.7S289-35.3,282.4-9
		c-6.7,26.3-9.3,39.5-22,49.8c-12.7,10.3-35.7,23.5-52.8,37.5c-17.2,14-32.5,29-48.8,29s-47-0.3-66.3-0.2s-42.2,4.7-58.3-6.3
		S-11.3,66.5-22.1,59.8z"/>
	<path class="st14" d="M-67,55.3c0,0-6.2-4.8-11-14s-12.7-34.8-16.3-50c-3.7-15.2-15-40.3-18.2-51.5s-5.2-30.3-0.7-44.3
		s16.8-42.2,18.7-53.2s10.8-45.3,24.3-60.5s43.3-32.5,54.8-41.5c11.5-9,37.8-33.8,60.7-38.5c22.8-4.7,58.3-0.8,78-1.2
		c19.7-0.3,46.7-1,58.3,4.8c11.6,5.8,24.3,14.5,45.5,32s49.2,30.7,60,44.8c10.8,14.2,18,40.2,22.2,56.7s20.3,49.8,22.3,69.2
		c2,19.3-8,44.7-16.8,68s-15.2,59.8-25.5,71.8c-10.3,12-28,26-42.2,34.5c-14.2,8.5-38,29-50.5,37.7S170.7,134,140.4,133
		s-39.5-1.8-65-1s-41.7-1.8-54-10.2c-12.3-8.3-33.3-26.3-52.7-39.3S-67,55.3-67,55.3z"/>
</g>
</svg>
