<svg width="1440" height="740" viewBox="0 0 1440 740" fill="none" xmlns="http://www.w3.org/2000/svg">
<path d="M1284.74 -76C1284.74 -76 1214.58 189.012 957.742 164.345C666.742 136.392 614.992 233.765 542.242 295.798C469.492 357.83 327.195 417.065 171.742 400.797C83.3997 391.557 0.0371094 240.462 -0.00793457 240.2V640.475C-0.00793457 640.475 189.742 528.995 292.875 621.725C319.125 645.35 338.857 677.84 347.287 697.227C352.733 709.886 361.76 720.677 373.258 728.273C384.756 735.868 398.224 739.937 412.005 739.977H413.212C441.585 739.977 467.07 722.818 478.23 696.545C497.317 651.605 545.032 607.775 662.25 607.775C790.335 607.775 855.75 611.667 995.25 487.025C1134.75 362.383 1440 476.09 1440 476.09V-75.895L1284.74 -76Z" fill="#1A6AFF"/>
</svg>
