<svg width="61" height="61" viewBox="0 0 61 61" fill="none" xmlns="http://www.w3.org/2000/svg">
<rect x="1" y="1" width="59" height="59" fill="#E8ECF3" stroke="black" stroke-width="2"/>
<path d="M44.3998 24C41.8511 24 40.5355 25.0011 39.3752 25.8842C38.3559 26.6598 37.5508 27.2727 35.7993 27.2727C34.0481 27.2727 33.243 26.6598 32.224 25.8842C31.0637 25.0011 29.7481 24 27.1994 24C24.651 24 23.3355 25.0011 22.1751 25.8842C21.1561 26.6598 20.3511 27.2727 18.5999 27.2727C16.8487 27.2727 16.0436 26.6598 15.0246 25.8842C13.8639 25.0011 12.5484 24 10 24V26.7273C11.7515 26.7273 12.5563 27.3398 13.5752 28.1154C14.7359 28.9989 16.0511 30 18.5999 30C21.1483 30 22.4638 28.9986 23.6242 28.1154C24.6431 27.3398 25.4482 26.7273 27.1994 26.7273C28.9509 26.7273 29.7557 27.3398 30.775 28.1154C31.9353 28.9989 33.2509 30 35.7993 30C38.348 30 39.6635 28.9986 40.8242 28.1154C41.8432 27.3398 42.6483 26.7273 44.3998 26.7273C46.1513 26.7273 46.9561 27.3398 47.9754 28.1154C49.1357 28.9989 50.4513 30 53 30V27.2727C51.2485 27.2727 50.4434 26.6598 49.4244 25.8842C48.2637 25.0011 46.9482 24 44.3998 24Z" fill="#191B1C"/>
<path d="M49.4244 13.8846C48.2637 13.0011 46.9482 12 44.3998 12C41.8511 12 40.5355 13.0011 39.3752 13.8846C38.3559 14.6602 37.5508 15.2727 35.7993 15.2727C34.0481 15.2727 33.243 14.6602 32.224 13.8846C31.0637 13.0011 29.7481 12 27.1994 12C24.651 12 23.3355 13.0011 22.1751 13.8846C21.1561 14.6602 20.3511 15.2727 18.5999 15.2727C16.8487 15.2727 16.0436 14.6602 15.0246 13.8846C13.8639 13.0011 12.5484 12 10 12V14.7273C11.7515 14.7273 12.5563 15.3398 13.5752 16.1154C14.7359 16.9989 16.0511 18 18.5999 18C21.1483 18 22.4638 16.9989 23.6242 16.1154C24.6431 15.3398 25.4482 14.7273 27.1994 14.7273C28.9509 14.7273 29.7557 15.3398 30.775 16.1154C31.9353 16.9989 33.2509 18 35.7993 18C38.348 18 39.6635 16.9989 40.8242 16.1154C41.8432 15.3398 42.6483 14.7273 44.3998 14.7273C46.1513 14.7273 46.9561 15.3398 47.9754 16.1154C49.1357 16.9989 50.4513 18 53 18V15.2727C51.2485 15.2727 50.4434 14.6602 49.4244 13.8846Z" fill="#1A6AFF"/>
<path d="M39 41.2272L39 42.9291C40.6854 42.301 42.764 40.5789 43.2884 38.6744L43.2884 50L44.7116 50L44.7116 38.6744C45.236 40.5789 47.3146 42.301 49 42.9291L49 41.2272C46.9775 40.0926 46.0037 39.0999 44.4682 36L43.5318 36C41.9963 39.0999 41.0225 40.0926 39 41.2272Z" fill="#1A6AFF" stroke="#1A6AFF" stroke-width="0.5"/>
</svg>
