<svg width="149" height="106" viewBox="0 0 149 106" fill="none" xmlns="http://www.w3.org/2000/svg">
<g opacity="0.1">
<path d="M117.872 39.4512C117.572 36.1815 117.802 27.2932 126.25 14.9334C126.889 14.0007 126.773 12.7428 125.98 11.9432C122.535 8.4717 120.403 6.28111 118.907 4.74822C116.94 2.72705 116.042 1.80609 114.728 0.605215C113.85 -0.18974 112.522 -0.203583 111.636 0.575651C96.9095 13.4899 80.5532 40.1753 82.92 72.8689C84.3069 92.066 98.2009 106 115.956 106C134.176 106 149 91.0625 149 72.6992C149 54.9845 135.204 40.4571 117.872 39.4512ZM115.956 101.307C100.709 101.307 88.77 89.2041 87.5628 72.5298C84.9003 35.7599 106.588 11.8744 113.141 5.55022C113.78 6.18491 114.51 6.93176 115.585 8.03621C116.881 9.3652 118.654 11.1846 121.337 13.8977C111.081 29.8228 113.016 41.1697 113.864 42.7967C114.266 43.5689 115.092 44.0891 115.956 44.0891C131.609 44.0891 144.344 56.9231 144.344 72.6992C144.344 88.4732 131.609 101.307 115.956 101.307Z" fill="#E8ECF3"/>
<path d="M35.1857 39.4512C34.8833 36.1907 35.1061 27.3092 43.5639 14.9334C44.2006 14.0007 44.0868 12.7428 43.2934 11.9432C39.8556 8.4785 37.7253 6.29027 36.2315 4.75737C34.2582 2.73174 33.3576 1.80821 32.0436 0.605216C31.1659 -0.189739 29.8382 -0.201237 28.9516 0.573304C14.2254 13.4876 -2.13323 40.1685 0.228934 72.8689C1.62048 92.0637 15.5166 106 33.2713 106C51.492 106 66.3159 91.0625 66.3159 72.6992C66.3159 54.9824 52.5197 40.4526 35.1857 39.4512ZM33.2713 101.307C18.0269 101.307 6.08126 89.2041 4.87177 72.5275C2.21626 35.7484 23.9041 11.8721 30.4565 5.55022C31.0977 6.18491 31.8299 6.93646 32.9076 8.04325C34.2011 9.37224 35.9724 11.1893 38.6507 13.8977C28.3945 29.8252 30.3294 41.1697 31.1773 42.7943C31.5799 43.5665 32.4073 44.0891 33.2713 44.0891C48.9252 44.0891 61.6596 56.9231 61.6596 72.6992C61.6596 88.4732 48.9252 101.307 33.2713 101.307Z" fill="#E8ECF3"/>
</g>
</svg>
